<svg width="95" height="108" viewBox="0 0 95 108" fill="none" xmlns="http://www.w3.org/2000/svg">
<g clip-path="url(#clip0_423_13318)">
<g opacity="0.35">
<path d="M41 0C70.7742 0 95 24.2258 95 54C95 83.7742 70.7742 108 41 108C11.2258 108 -13 83.7742 -13 54C-13 24.2258 11.2258 0 41 0ZM41 107.325C70.4023 107.325 94.3251 83.4023 94.3251 54C94.3251 24.5977 70.4023 0.674856 41 0.674856C11.5977 0.674856 -12.3251 24.5977 -12.3251 54C-12.3251 83.4023 11.5977 107.325 41 107.325Z" fill="#6A9619"/>
<path d="M40.9999 14.59C62.7295 14.59 80.41 32.2704 80.41 54C80.41 75.7296 62.7295 93.4101 40.9999 93.4101C19.2703 93.4101 1.58984 75.7296 1.58984 54C1.58984 32.2704 19.2703 14.59 40.9999 14.59ZM40.9999 92.3173C62.1275 92.3173 79.3172 75.1276 79.3172 54C79.3172 32.8724 62.1275 15.6828 40.9999 15.6828C19.8723 15.6828 2.68265 32.8724 2.68265 54C2.68265 75.1276 19.8723 92.3173 40.9999 92.3173Z" fill="#6A9619"/>
<path d="M41.0001 23.3707C57.8907 23.3707 71.6294 37.1133 71.6294 54C71.6294 70.8867 57.8869 84.6293 41.0001 84.6293C24.1134 84.6293 10.3708 70.8867 10.3708 54C10.3708 37.1133 24.1134 23.3707 41.0001 23.3707ZM41.0001 83.4559C57.2427 83.4559 70.4561 70.2426 70.4561 54C70.4561 37.7574 57.2427 24.5441 41.0001 24.5441C24.7576 24.5441 11.5442 37.7574 11.5442 54C11.5442 70.2426 24.7576 83.4559 41.0001 83.4559Z" fill="#6A9619"/>
<path d="M41 27.3279C55.705 27.3279 67.6722 39.2912 67.6722 54C67.6722 68.7088 55.7088 80.6722 41 80.6722C26.2912 80.6722 14.3279 68.7088 14.3279 54C14.3279 39.2912 26.2912 27.3279 41 27.3279ZM41 80.0549C55.3637 80.0549 67.0549 68.3676 67.0549 54C67.0549 39.6325 55.3676 27.9452 41 27.9452C26.6325 27.9452 14.9452 39.6325 14.9452 54C14.9452 68.3676 26.6325 80.0549 41 80.0549Z" fill="#6A9619"/>
<path d="M41.0001 10.1036C65.2067 10.1036 84.8964 29.7972 84.8964 54C84.8964 78.2028 65.2029 97.8963 41.0001 97.8963C16.7973 97.8963 -2.89624 78.2028 -2.89624 54C-2.89624 29.7972 16.7973 10.1036 41.0001 10.1036ZM41.0001 96.8802C64.6431 96.8802 83.8803 77.6429 83.8803 54C83.8803 30.357 64.6469 11.1198 41.0001 11.1198C17.3533 11.1198 -1.88012 30.357 -1.88012 54C-1.88012 77.6429 17.3571 96.8802 41.0001 96.8802Z" fill="#6A9619"/>
<path d="M41 37.6846C49.9955 37.6846 57.3154 45.0045 57.3154 54C57.3154 62.9955 49.9955 70.3154 41 70.3154C32.0045 70.3154 24.6846 62.9955 24.6846 54C24.6846 45.0045 32.0045 37.6846 41 37.6846ZM41 69.1037C49.3283 69.1037 56.0999 62.3283 56.0999 54C56.0999 45.6716 49.3245 38.9001 41 38.9001C32.6755 38.9001 25.9001 45.6755 25.9001 54C25.9001 62.3245 32.6755 69.1037 41 69.1037Z" fill="#6A9619"/>
<path d="M41 46.0015C45.4096 46.0015 48.9986 49.5905 48.9986 54C48.9986 58.4096 45.4096 61.9986 41 61.9986C36.5905 61.9986 33.0015 58.4096 33.0015 54C33.0015 49.5905 36.5905 46.0015 41 46.0015ZM41 61.3966C45.0799 61.3966 48.3966 58.076 48.3966 53.9962C48.3966 49.9164 45.0799 46.5996 41 46.5996C36.9202 46.5996 33.5996 49.9164 33.5996 53.9962C33.5996 58.076 36.9202 61.3966 41 61.3966Z" fill="#6A9619"/>
</g>
</g>
<defs>
<clipPath id="clip0_423_13318">
<rect width="108" height="108" fill="white" transform="translate(-13)"/>
</clipPath>
</defs>
</svg>
