<svg width="1440" height="564" viewBox="0 0 1440 564" fill="none" xmlns="http://www.w3.org/2000/svg">
<path d="M1439 226.879C1095.83 191.542 1019.1 275.614 660.772 258.682C377.648 245.304 280.227 30.4823 1.58138e-05 1.99996M1.57383e-05 3.72561C280.547 32.7677 379.124 243.494 660.772 262.583C960.81 282.92 1142.13 188.423 1439 231.737M1.56443e-05 5.87668C280.862 35.4881 378.736 247.759 660.772 266.886C961.082 287.252 1141.76 191.039 1439 233.888M1.55568e-05 7.87799C281.158 38.0186 378.373 251.727 660.772 270.888C961.337 291.282 1141.42 193.472 1439 235.889M1.54535e-05 10.2411C281.508 41.0063 377.941 256.413 660.772 275.614C961.641 296.04 1141.02 196.346 1439 238.252M1.53503e-05 12.6027C281.859 43.9914 377.506 261.097 660.772 280.338C961.948 300.795 1140.62 199.217 1439 240.614M1.5262e-05 14.6225C282.161 46.5442 377.132 265.104 660.772 284.377C962.214 304.86 1140.27 201.673 1439 242.634M1.51776e-05 16.5536C282.451 48.9846 376.771 268.935 660.772 288.239C962.47 308.747 1139.93 204.021 1439 244.565M1.50998e-05 18.333C282.72 51.2329 376.437 272.465 660.772 291.798C962.708 312.328 1139.62 206.185 1439 246.344M1.49824e-05 21.0201C283.126 54.6277 375.93 277.797 660.772 297.172C963.071 317.735 1139.16 209.452 1439 249.031M1.48802e-05 23.3582C283.482 57.5811 375.485 282.437 660.772 301.849C963.391 322.439 1138.75 212.296 1439 251.369M1.47828e-05 25.5864C283.823 60.3953 375.057 286.86 660.772 306.305C963.699 326.921 1138.35 215.005 1439 253.597M1.466e-05 28.3945C284.255 63.9414 374.515 292.435 660.772 311.921C964.091 332.57 1137.86 218.42 1439 256.406M1.45297e-05 31.3764C284.716 67.7061 373.934 298.355 660.772 317.885C964.512 338.566 1137.32 222.047 1439 259.387M1.44161e-05 33.9749C285.12 70.9864 373.424 303.515 660.772 323.082C964.883 343.791 1136.86 225.207 1439 261.986M1.42891e-05 36.8793C285.574 74.6521 372.849 309.283 660.772 328.891C965.303 349.629 1136.34 228.74 1439 264.89M1.41401e-05 40.289C286.11 78.9549 372.169 316.056 660.772 335.71C965.802 356.483 1135.72 232.888 1439 268.3M1.39995e-05 43.5056C286.619 83.0132 371.52 322.447 660.772 342.143C966.279 362.946 1135.13 236.802 1439 271.517M1.37966e-05 48.1462C287.359 88.867 370.575 331.669 660.772 351.425C966.978 372.27 1134.28 242.45 1439 276.157M1.35583e-05 53.5982C288.237 95.7424 369.45 342.506 660.772 362.329C967.815 383.221 1133.27 249.087 1439 281.609M1.32956e-05 59.6093C289.215 103.321 368.191 354.459 660.772 374.351C968.758 395.29 1132.14 256.408 1439 287.62M1.30058e-05 66.2392C290.307 111.677 366.78 367.646 660.772 387.611C969.822 408.598 1130.88 264.487 1439 294.25M1.26909e-05 73.4434C291.507 120.754 365.221 381.981 660.772 402.019C971.005 423.052 1129.5 273.273 1439 301.455M1.23445e-05 81.3682C292.845 130.737 363.475 397.756 660.772 417.869C972.341 438.946 1127.96 282.946 1439 309.379M1.19666e-05 90.0132C294.325 141.624 361.535 414.973 660.772 435.159C973.837 456.277 1126.26 293.51 1439 318.024M1.16202e-05 97.938C295.7 151.601 359.723 430.761 660.772 451.008C975.244 472.158 1124.67 303.206 1439 325.949M1.13053e-05 105.142C296.965 160.669 358.05 445.12 660.772 465.417C976.551 486.589 1123.22 312.033 1439 333.153M1.09274e-05 113.787C298.502 171.55 356.009 462.357 660.772 482.707C978.157 503.899 1121.45 322.641 1439 341.798M1.0518e-05 123.153C300.19 183.336 353.758 481.039 660.772 501.438C979.94 522.644 1119.51 334.156 1439 351.164M1.00771e-05 133.239C302.033 196.028 351.29 501.167 660.772 521.61C981.91 542.822 1117.39 346.585 1439 361.25M9.60981e-06 143.93C304.015 209.481 348.623 522.513 660.772 542.991C984.054 564.2 1115.11 359.796 1439 371.941M9.22607e-06 152.709C305.876 220.737 345.454 552.105 660.772 561.584C1019.76 572.376 1080.09 369.294 1439 381.925" stroke="url(#paint0_linear_349_11379)" stroke-width="3.04199"/>
<defs>
<linearGradient id="paint0_linear_349_11379" x1="1341.86" y1="322.863" x2="770.015" y2="369.296" gradientUnits="userSpaceOnUse">
<stop stop-color="#6A9619" stop-opacity="0.2"/>
<stop offset="1" stop-color="#A6CE39" stop-opacity="0.6"/>
</linearGradient>
</defs>
</svg>
