<svg width="616" height="1215" viewBox="0 0 616 1215" fill="none" xmlns="http://www.w3.org/2000/svg">
<g opacity="0.5">
<path d="M610.329 19.9127L656.878 37.6494L672.471 84.9592L641.544 114.506L594.995 96.7688L579.402 49.4589L610.329 19.9127Z" stroke="#6A9619" stroke-width="0.25"/>
<path d="M640.91 51.9228L687.459 69.6595L703.053 116.969L672.125 146.516L625.577 128.779L609.983 81.4691L640.91 51.9228Z" stroke="#6A9619" stroke-width="0.25"/>
<path d="M486.164 138.533L532.713 156.27L548.306 203.58L517.379 233.126L470.83 215.39L455.237 168.08L486.164 138.533Z" stroke="#6A9619" stroke-width="0.25"/>
<path d="M578.356 235.035L624.905 252.772L640.498 300.082L609.571 329.628L563.022 311.891L547.429 264.582L578.356 235.035Z" stroke="#6A9619" stroke-width="0.25"/>
<path d="M547.776 203.025L594.324 220.761L609.918 268.071L578.991 297.618L532.442 279.881L516.849 232.571L547.776 203.025Z" stroke="#6A9619" stroke-width="0.25"/>
<path d="M639.968 299.526L686.517 317.263L702.11 364.572L671.183 394.119L624.634 376.382L609.041 329.072L639.968 299.526Z" stroke="#6A9619" stroke-width="0.25"/>
<path d="M516.744 170.543L563.293 188.28L578.887 235.59L547.959 265.136L501.411 247.4L485.817 200.09L516.744 170.543Z" stroke="#6A9619" stroke-width="0.25"/>
<path d="M608.937 267.045L655.486 284.782L671.079 332.092L640.152 361.638L593.603 343.901L578.01 296.591L608.937 267.045Z" stroke="#6A9619" stroke-width="0.25"/>
<path d="M361.998 257.155L408.547 274.892L424.14 322.202L393.213 351.748L346.664 334.011L331.071 286.701L361.998 257.155Z" stroke="#6A9619" stroke-width="0.25"/>
<path d="M454.19 353.657L500.739 371.393L516.332 418.703L485.405 448.25L438.856 430.513L423.263 383.203L454.19 353.657Z" stroke="#6A9619" stroke-width="0.25"/>
<path d="M546.383 450.158L592.932 467.895L608.525 515.205L577.598 544.751L531.049 527.014L515.456 479.704L546.383 450.158Z" stroke="#6A9619" stroke-width="0.25"/>
<path d="M638.575 546.659L685.124 564.396L700.718 611.706L669.79 641.252L623.242 623.515L607.648 576.205L638.575 546.659Z" stroke="#6A9619" stroke-width="0.25"/>
<path d="M423.609 321.646L470.158 339.383L485.751 386.693L454.824 416.239L408.275 398.503L392.682 351.193L423.609 321.646Z" stroke="#6A9619" stroke-width="0.25"/>
<path d="M515.802 418.147L562.351 435.884L577.944 483.194L547.017 512.74L500.468 495.003L484.875 447.694L515.802 418.147Z" stroke="#6A9619" stroke-width="0.25"/>
<path d="M607.994 514.649L654.543 532.386L670.136 579.696L639.209 609.242L592.66 591.505L577.067 544.196L607.994 514.649Z" stroke="#6A9619" stroke-width="0.25"/>
<path d="M392.578 289.165L439.127 306.902L454.721 354.212L423.793 383.758L377.245 366.022L361.651 318.712L392.578 289.165Z" stroke="#6A9619" stroke-width="0.25"/>
<path d="M484.771 385.667L531.32 403.404L546.913 450.714L515.986 480.26L469.437 462.523L453.844 415.214L484.771 385.667Z" stroke="#6A9619" stroke-width="0.25"/>
<path d="M576.964 482.168L623.512 499.905L639.106 547.215L608.179 576.761L561.63 559.025L546.036 511.715L576.964 482.168Z" stroke="#6A9619" stroke-width="0.25"/>
<path d="M237.834 375.777L284.382 393.514L299.976 440.824L269.049 470.37L222.5 452.633L206.906 405.324L237.834 375.777Z" stroke="#6A9619" stroke-width="0.25"/>
<path d="M330.026 472.279L376.574 490.016L392.168 537.325L361.241 566.872L314.692 549.135L299.099 501.825L330.026 472.279Z" stroke="#6A9619" stroke-width="0.25"/>
<path d="M422.218 568.78L468.767 586.517L484.361 633.827L453.433 663.373L406.885 645.636L391.291 598.326L422.218 568.78Z" stroke="#6A9619" stroke-width="0.25"/>
<path d="M514.411 665.281L560.96 683.018L576.553 730.328L545.626 759.874L499.077 742.137L483.484 694.827L514.411 665.281Z" stroke="#6A9619" stroke-width="0.25"/>
<path d="M606.603 761.782L653.152 779.519L668.745 826.829L637.818 856.375L591.269 838.638L575.676 791.329L606.603 761.782Z" stroke="#6A9619" stroke-width="0.25"/>
<path d="M299.445 440.268L345.994 458.005L361.587 505.315L330.66 534.861L284.111 517.124L268.518 469.815L299.445 440.268Z" stroke="#6A9619" stroke-width="0.25"/>
<path d="M391.637 536.769L438.186 554.506L453.78 601.816L422.853 631.362L376.304 613.626L360.71 566.316L391.637 536.769Z" stroke="#6A9619" stroke-width="0.25"/>
<path d="M483.83 633.271L530.379 651.008L545.972 698.318L515.045 727.864L468.496 710.127L452.903 662.817L483.83 633.271Z" stroke="#6A9619" stroke-width="0.25"/>
<path d="M576.023 729.772L622.572 747.509L638.165 794.819L607.238 824.365L560.689 806.629L545.096 759.319L576.023 729.772Z" stroke="#6A9619" stroke-width="0.25"/>
<path d="M268.414 407.788L314.963 425.524L330.556 472.834L299.629 502.38L253.08 484.644L237.487 437.334L268.414 407.788Z" stroke="#6A9619" stroke-width="0.25"/>
<path d="M360.607 504.289L407.155 522.026L422.749 569.336L391.822 598.882L345.273 581.146L329.679 533.836L360.607 504.289Z" stroke="#6A9619" stroke-width="0.25"/>
<path d="M452.799 600.79L499.348 618.527L514.942 665.837L484.014 695.383L437.466 677.647L421.872 630.337L452.799 600.79Z" stroke="#6A9619" stroke-width="0.25"/>
<path d="M544.991 697.291L591.54 715.028L607.134 762.338L576.206 791.884L529.658 774.147L514.064 726.837L544.991 697.291Z" stroke="#6A9619" stroke-width="0.25"/>
<path d="M637.184 793.792L683.733 811.529L699.326 858.839L668.399 888.385L621.85 870.649L606.257 823.339L637.184 793.792Z" stroke="#6A9619" stroke-width="0.25"/>
<path d="M113.668 494.399L160.216 512.135L175.81 559.445L144.883 588.992L98.3339 571.255L82.7404 523.945L113.668 494.399Z" stroke="#6A9619" stroke-width="0.25"/>
<path d="M205.861 590.9L252.41 608.637L268.003 655.946L237.076 685.493L190.527 667.756L174.934 620.446L205.861 590.9Z" stroke="#6A9619" stroke-width="0.25"/>
<path d="M298.053 687.402L344.602 705.138L360.196 752.448L329.269 781.995L282.72 764.258L267.126 716.948L298.053 687.402Z" stroke="#6A9619" stroke-width="0.25"/>
<path d="M390.246 783.902L436.794 801.639L452.388 848.949L421.461 878.495L374.912 860.758L359.318 813.448L390.246 783.902Z" stroke="#6A9619" stroke-width="0.25"/>
<path d="M482.438 880.403L528.987 898.14L544.58 945.45L513.653 974.996L467.105 957.259L451.511 909.95L482.438 880.403Z" stroke="#6A9619" stroke-width="0.25"/>
<path d="M574.631 976.905L621.18 994.641L636.773 1041.95L605.846 1071.5L559.297 1053.76L543.704 1006.45L574.631 976.905Z" stroke="#6A9619" stroke-width="0.25"/>
<path d="M175.28 558.889L221.829 576.626L237.422 623.936L206.495 653.482L159.946 635.746L144.353 588.436L175.28 558.889Z" stroke="#6A9619" stroke-width="0.25"/>
<path d="M267.473 655.391L314.021 673.128L329.615 720.438L298.688 749.984L252.139 732.247L236.545 684.937L267.473 655.391Z" stroke="#6A9619" stroke-width="0.25"/>
<path d="M359.665 751.891L406.214 769.628L421.807 816.938L390.88 846.484L344.331 828.748L328.738 781.438L359.665 751.891Z" stroke="#6A9619" stroke-width="0.25"/>
<path d="M451.858 848.393L498.407 866.13L514 913.44L483.073 942.986L436.524 925.25L420.931 877.94L451.858 848.393Z" stroke="#6A9619" stroke-width="0.25"/>
<path d="M544.05 944.895L590.599 962.632L606.192 1009.94L575.265 1039.49L528.716 1021.75L513.123 974.441L544.05 944.895Z" stroke="#6A9619" stroke-width="0.25"/>
<path d="M636.243 1041.4L682.792 1059.13L698.385 1106.44L667.458 1135.99L620.909 1118.25L605.316 1070.94L636.243 1041.4Z" stroke="#6A9619" stroke-width="0.25"/>
<path d="M144.249 526.409L190.798 544.145L206.391 591.455L175.464 621.002L128.915 603.265L113.322 555.955L144.249 526.409Z" stroke="#6A9619" stroke-width="0.25"/>
<path d="M236.442 622.91L282.991 640.647L298.584 687.957L267.657 717.503L221.108 699.766L205.515 652.456L236.442 622.91Z" stroke="#6A9619" stroke-width="0.25"/>
<path d="M328.634 719.411L375.183 737.148L390.776 784.457L359.849 814.004L313.3 796.267L297.707 748.957L328.634 719.411Z" stroke="#6A9619" stroke-width="0.25"/>
<path d="M420.826 815.912L467.375 833.649L482.969 880.959L452.042 910.505L405.493 892.768L389.899 845.458L420.826 815.912Z" stroke="#6A9619" stroke-width="0.25"/>
<path d="M513.019 912.414L559.568 930.151L575.161 977.461L544.234 1007.01L497.685 989.271L482.092 941.961L513.019 912.414Z" stroke="#6A9619" stroke-width="0.25"/>
<path d="M605.211 1008.91L651.76 1026.65L667.353 1073.96L636.426 1103.51L589.877 1085.77L574.284 1038.46L605.211 1008.91Z" stroke="#6A9619" stroke-width="0.25"/>
<path d="M548.246 79.2219L594.795 96.9586L610.388 144.268L579.461 173.815L532.913 156.078L517.319 108.768L548.246 79.2219Z" stroke="#6A9619" stroke-width="0.25"/>
<path d="M640.439 175.724L686.988 193.46L702.581 240.77L671.654 270.317L625.105 252.58L609.512 205.27L640.439 175.724Z" stroke="#6A9619" stroke-width="0.25"/>
<path d="M609.858 143.713L656.407 161.45L672 208.76L641.073 238.306L594.524 220.569L578.931 173.259L609.858 143.713Z" stroke="#6A9619" stroke-width="0.25"/>
<path d="M578.827 111.232L625.376 128.969L640.969 176.279L610.042 205.825L563.493 188.089L547.9 140.779L578.827 111.232Z" stroke="#6A9619" stroke-width="0.25"/>
<path d="M424.08 197.844L470.629 215.58L486.223 262.89L455.296 292.437L408.747 274.7L393.153 227.39L424.08 197.844Z" stroke="#6A9619" stroke-width="0.25"/>
<path d="M516.273 294.345L562.822 312.081L578.415 359.391L547.488 388.938L500.939 371.201L485.346 323.891L516.273 294.345Z" stroke="#6A9619" stroke-width="0.25"/>
<path d="M608.465 390.846L655.014 408.583L670.607 455.892L639.68 485.439L593.131 467.702L577.538 420.392L608.465 390.846Z" stroke="#6A9619" stroke-width="0.25"/>
<path d="M485.693 262.334L532.241 280.071L547.835 327.381L516.908 356.927L470.359 339.19L454.765 291.881L485.693 262.334Z" stroke="#6A9619" stroke-width="0.25"/>
<path d="M577.885 358.836L624.434 376.573L640.028 423.883L609.1 453.429L562.552 435.692L546.958 388.382L577.885 358.836Z" stroke="#6A9619" stroke-width="0.25"/>
<path d="M454.662 229.853L501.21 247.59L516.804 294.9L485.877 324.446L439.328 306.71L423.734 259.4L454.662 229.853Z" stroke="#6A9619" stroke-width="0.25"/>
<path d="M546.854 326.355L593.403 344.091L608.996 391.401L578.069 420.948L531.52 403.211L515.927 355.901L546.854 326.355Z" stroke="#6A9619" stroke-width="0.25"/>
<path d="M639.047 422.857L685.595 440.593L701.189 487.903L670.262 517.449L623.713 499.713L608.119 452.403L639.047 422.857Z" stroke="#6A9619" stroke-width="0.25"/>
<path d="M299.916 316.464L346.465 334.201L362.058 381.511L331.131 411.057L284.582 393.32L268.989 346.011L299.916 316.464Z" stroke="#6A9619" stroke-width="0.25"/>
<path d="M392.108 412.965L438.657 430.702L454.25 478.012L423.323 507.558L376.774 489.822L361.181 442.512L392.108 412.965Z" stroke="#6A9619" stroke-width="0.25"/>
<path d="M484.301 509.467L530.849 527.204L546.443 574.514L515.516 604.06L468.967 586.323L453.373 539.014L484.301 509.467Z" stroke="#6A9619" stroke-width="0.25"/>
<path d="M576.493 605.968L623.042 623.704L638.636 671.014L607.708 700.561L561.16 682.824L545.566 635.514L576.493 605.968Z" stroke="#6A9619" stroke-width="0.25"/>
<path d="M361.526 380.955L408.075 398.692L423.669 446.001L392.742 475.548L346.193 457.811L330.599 410.501L361.526 380.955Z" stroke="#6A9619" stroke-width="0.25"/>
<path d="M453.719 477.456L500.268 495.193L515.862 542.503L484.934 572.049L438.386 554.313L422.792 507.003L453.719 477.456Z" stroke="#6A9619" stroke-width="0.25"/>
<path d="M545.912 573.958L592.461 591.695L608.054 639.005L577.127 668.551L530.578 650.815L514.985 603.505L545.912 573.958Z" stroke="#6A9619" stroke-width="0.25"/>
<path d="M638.105 670.459L684.654 688.196L700.247 735.506L669.32 765.052L622.771 747.315L607.178 700.005L638.105 670.459Z" stroke="#6A9619" stroke-width="0.25"/>
<path d="M330.496 348.475L377.045 366.212L392.639 413.521L361.711 443.068L315.163 425.331L299.569 378.021L330.496 348.475Z" stroke="#6A9619" stroke-width="0.25"/>
<path d="M422.69 444.976L469.238 462.713L484.832 510.023L453.905 539.569L407.356 521.832L391.762 474.522L422.69 444.976Z" stroke="#6A9619" stroke-width="0.25"/>
<path d="M514.882 541.478L561.431 559.215L577.025 606.524L546.097 636.071L499.549 618.334L483.955 571.024L514.882 541.478Z" stroke="#6A9619" stroke-width="0.25"/>
<path d="M607.074 637.978L653.623 655.715L669.216 703.025L638.289 732.571L591.74 714.834L576.147 667.525L607.074 637.978Z" stroke="#6A9619" stroke-width="0.25"/>
<path d="M175.752 435.087L222.3 452.824L237.894 500.133L206.967 529.68L160.418 511.943L144.824 464.633L175.752 435.087Z" stroke="#6A9619" stroke-width="0.25"/>
<path d="M267.944 531.588L314.493 549.325L330.086 596.635L299.159 626.181L252.61 608.445L237.017 561.135L267.944 531.588Z" stroke="#6A9619" stroke-width="0.25"/>
<path d="M360.136 628.09L406.685 645.827L422.279 693.137L391.351 722.683L344.803 704.946L329.209 657.637L360.136 628.09Z" stroke="#6A9619" stroke-width="0.25"/>
<path d="M452.329 724.591L498.878 742.327L514.471 789.637L483.544 819.184L436.995 801.447L421.402 754.137L452.329 724.591Z" stroke="#6A9619" stroke-width="0.25"/>
<path d="M544.521 821.092L591.07 838.829L606.664 886.138L575.736 915.685L529.188 897.948L513.594 850.638L544.521 821.092Z" stroke="#6A9619" stroke-width="0.25"/>
<path d="M636.713 917.592L683.262 935.329L698.856 982.639L667.929 1012.19L621.38 994.449L605.786 947.139L636.713 917.592Z" stroke="#6A9619" stroke-width="0.25"/>
<path d="M237.363 499.578L283.912 517.315L299.506 564.625L268.578 594.171L222.03 576.434L206.436 529.124L237.363 499.578Z" stroke="#6A9619" stroke-width="0.25"/>
<path d="M329.556 596.08L376.105 613.816L391.698 661.126L360.771 690.673L314.222 672.936L298.629 625.626L329.556 596.08Z" stroke="#6A9619" stroke-width="0.25"/>
<path d="M421.748 692.58L468.296 710.317L483.89 757.627L452.963 787.173L406.414 769.436L390.82 722.126L421.748 692.58Z" stroke="#6A9619" stroke-width="0.25"/>
<path d="M513.94 789.082L560.489 806.819L576.083 854.129L545.156 883.675L498.607 865.938L483.013 818.628L513.94 789.082Z" stroke="#6A9619" stroke-width="0.25"/>
<path d="M606.133 885.583L652.682 903.32L668.275 950.63L637.348 980.176L590.799 962.439L575.206 915.129L606.133 885.583Z" stroke="#6A9619" stroke-width="0.25"/>
<path d="M206.332 467.097L252.881 484.834L268.474 532.144L237.547 561.69L190.998 543.953L175.405 496.643L206.332 467.097Z" stroke="#6A9619" stroke-width="0.25"/>
<path d="M298.525 563.598L345.073 581.335L360.667 628.645L329.74 658.191L283.191 640.454L267.597 593.144L298.525 563.598Z" stroke="#6A9619" stroke-width="0.25"/>
<path d="M390.717 660.099L437.266 677.836L452.859 725.146L421.932 754.692L375.383 736.956L359.79 689.646L390.717 660.099Z" stroke="#6A9619" stroke-width="0.25"/>
<path d="M482.909 756.601L529.458 774.337L545.051 821.647L514.124 851.193L467.575 833.457L451.982 786.147L482.909 756.601Z" stroke="#6A9619" stroke-width="0.25"/>
<path d="M575.102 853.102L621.65 870.839L637.244 918.149L606.317 947.695L559.768 929.959L544.174 882.649L575.102 853.102Z" stroke="#6A9619" stroke-width="0.25"/>
<path d="M51.5846 553.708L98.1334 571.445L113.727 618.755L82.7997 648.301L36.2509 630.564L20.6574 583.254L51.5846 553.708Z" stroke="#6A9619" stroke-width="0.25"/>
<path d="M143.777 650.209L190.326 667.946L205.919 715.256L174.992 744.802L128.443 727.066L112.85 679.756L143.777 650.209Z" stroke="#6A9619" stroke-width="0.25"/>
<path d="M235.969 746.71L282.518 764.447L298.111 811.757L267.184 841.303L220.635 823.567L205.042 776.257L235.969 746.71Z" stroke="#6A9619" stroke-width="0.25"/>
<path d="M328.162 843.212L374.711 860.949L390.305 908.259L359.377 937.805L312.829 920.069L297.235 872.759L328.162 843.212Z" stroke="#6A9619" stroke-width="0.25"/>
<path d="M420.355 939.713L466.904 957.449L482.497 1004.76L451.57 1034.31L405.021 1016.57L389.428 969.259L420.355 939.713Z" stroke="#6A9619" stroke-width="0.25"/>
<path d="M512.547 1036.21L559.096 1053.95L574.69 1101.26L543.763 1130.81L497.214 1113.07L481.62 1065.76L512.547 1036.21Z" stroke="#6A9619" stroke-width="0.25"/>
<path d="M113.197 618.199L159.746 635.936L175.339 683.245L144.412 712.792L97.863 695.055L82.2695 647.745L113.197 618.199Z" stroke="#6A9619" stroke-width="0.25"/>
<path d="M205.389 714.701L251.938 732.437L267.532 779.747L236.604 809.294L190.056 791.557L174.462 744.247L205.389 714.701Z" stroke="#6A9619" stroke-width="0.25"/>
<path d="M297.582 811.203L344.131 828.939L359.724 876.249L328.797 905.796L282.248 888.059L266.655 840.749L297.582 811.203Z" stroke="#6A9619" stroke-width="0.25"/>
<path d="M389.774 907.702L436.323 925.439L451.916 972.749L420.989 1002.3L374.44 984.558L358.847 937.249L389.774 907.702Z" stroke="#6A9619" stroke-width="0.25"/>
<path d="M481.967 1004.2L528.516 1021.94L544.109 1069.25L513.182 1098.8L466.633 1081.06L451.04 1033.75L481.967 1004.2Z" stroke="#6A9619" stroke-width="0.25"/>
<path d="M574.159 1100.71L620.708 1118.44L636.302 1165.75L605.374 1195.3L558.826 1177.56L543.232 1130.25L574.159 1100.71Z" stroke="#6A9619" stroke-width="0.25"/>
<path d="M82.1659 585.718L128.715 603.455L144.308 650.765L113.381 680.311L66.8322 662.574L51.2387 615.265L82.1659 585.718Z" stroke="#6A9619" stroke-width="0.25"/>
<path d="M174.359 682.219L220.907 699.956L236.501 747.266L205.574 776.812L159.025 759.076L143.431 711.766L174.359 682.219Z" stroke="#6A9619" stroke-width="0.25"/>
<path d="M266.551 778.721L313.099 796.458L328.693 843.768L297.766 873.314L251.217 855.577L235.623 808.267L266.551 778.721Z" stroke="#6A9619" stroke-width="0.25"/>
<path d="M358.743 875.222L405.292 892.958L420.885 940.268L389.958 969.814L343.41 952.078L327.816 904.768L358.743 875.222Z" stroke="#6A9619" stroke-width="0.25"/>
<path d="M450.936 971.724L497.485 989.461L513.078 1036.77L482.151 1066.32L435.602 1048.58L420.009 1001.27L450.936 971.724Z" stroke="#6A9619" stroke-width="0.25"/>
<path d="M543.128 1068.23L589.677 1085.96L605.27 1133.27L574.343 1162.82L527.794 1145.08L512.201 1097.77L543.128 1068.23Z" stroke="#6A9619" stroke-width="0.25"/>
</g>
</svg>
