<svg width="493" height="211" viewBox="0 0 493 211" fill="none" xmlns="http://www.w3.org/2000/svg">
<g clip-path="url(#clip0_355_34232)">
<path d="M392.726 160.257H383.035V144.574H371.941V209.374H383.035V178.821H392.726V160.257Z" fill="white"/>
<path d="M383.517 209.962H371.459V143.985H383.517V159.672H393.209V179.413H383.517V209.966V209.962ZM372.423 208.785H382.552V178.232H392.244V160.845H382.552V145.159H372.423V208.781V208.785Z" fill="#6A9619"/>
<path d="M359.286 159.471H343.702V209.373H359.286V159.471Z" fill="white"/>
<path d="M359.768 209.962H343.219V158.882H359.768V209.962ZM344.184 208.785H358.803V160.06H344.184V208.785Z" fill="#6A9619"/>
<path d="M511.617 208.784H0.182068V209.962H511.617V208.784Z" fill="#6A9619"/>
<path d="M69.2305 184.972H54.5401V130.155H69.2305V184.972ZM55.5044 183.794H68.2662V131.332H55.5044V183.794Z" fill="#6A9619"/>
<path d="M79.4657 209.962H21.6006V183.794H79.4657V209.962ZM22.565 208.785H78.5013V184.972H22.565V208.785Z" fill="#6A9619"/>
<path d="M42.0291 184.972H28.4187V149.814H42.0291V184.972ZM29.3863 183.794H41.0679V150.992H29.3863V183.794Z" fill="#6A9619"/>
<path d="M41.2993 150.988H29.1516L35.2238 138.139L41.2993 150.988ZM30.8199 149.81H39.6278L35.2238 140.495L30.8199 149.81Z" fill="#6A9619"/>
<path d="M100.45 209.962H78.5013V84.4725H100.45V209.962ZM79.4657 208.785H99.4859V85.6502H79.4657V208.785Z" fill="#6A9619"/>
<path d="M152.227 161.045H141.539L143.538 82.655L144.171 82.9534C145.904 83.766 147.858 83.766 149.591 82.9534L150.224 82.655L152.224 161.045H152.227ZM142.535 159.868H151.234L149.305 84.3156C147.736 84.8848 146.029 84.8848 144.461 84.3156L142.532 159.868H142.535Z" fill="#6A9619"/>
<path d="M146.884 84.7435C145.833 84.7435 144.805 84.5119 143.827 84.0526C141.786 83.0947 140.143 81.2458 139.192 78.8394L138.858 77.9954H154.905L154.57 78.8394C153.622 81.2418 151.976 83.0947 149.935 84.0526C148.958 84.5119 147.929 84.7435 146.878 84.7435H146.884ZM140.439 79.173C141.307 80.8964 142.609 82.2193 144.171 82.9534C145.904 83.766 147.858 83.766 149.591 82.9534C151.153 82.2193 152.455 80.8964 153.323 79.173H140.436H140.439Z" fill="#6A9619"/>
<path d="M154.442 79.1731H139.324L139.192 78.8394C138.633 77.4262 138.35 75.907 138.35 74.325C138.35 72.743 138.658 71.0982 139.266 69.6339L139.401 69.312H154.365L154.5 69.6339C155.107 71.1021 155.416 72.6802 155.416 74.325C155.416 75.9698 155.133 77.4262 154.574 78.8394L154.442 79.1731ZM139.938 77.9954H153.828C154.239 76.8374 154.448 75.6048 154.448 74.325C154.448 73.0453 154.22 71.6949 153.763 70.4897H139.999C139.546 71.6988 139.314 72.9864 139.314 74.325C139.314 75.6636 139.523 76.8374 139.935 77.9954H139.938Z" fill="#6A9619"/>
<path d="M149.186 65.4962C149.141 65.4962 149.093 65.4884 149.048 65.4727C147.643 64.9624 146.126 64.9624 144.721 65.4727C144.567 65.5277 144.4 65.4884 144.274 65.3628C144.149 65.2372 144.085 65.0448 144.104 64.8485L146.405 38.8493C146.431 38.5509 146.64 38.3232 146.884 38.3232C147.129 38.3232 147.338 38.5509 147.363 38.8493L149.665 64.8485C149.681 65.0448 149.617 65.2372 149.495 65.3628C149.408 65.4531 149.299 65.5002 149.186 65.5002V65.4962ZM146.884 63.9064C147.473 63.9064 148.058 63.981 148.633 64.1262L146.884 44.3804L145.136 64.1262C145.711 63.981 146.296 63.9064 146.884 63.9064Z" fill="#6A9619"/>
<path d="M154.853 70.4857H138.915L139.269 69.6299C140.323 67.0822 142.21 65.1508 144.444 64.3382C146.026 63.7611 147.739 63.7611 149.324 64.3382C151.558 65.1508 153.445 67.0822 154.5 69.6299L154.853 70.4857ZM140.529 69.308H153.236C152.262 67.4708 150.771 66.0969 149.048 65.4688C147.643 64.9584 146.126 64.9584 144.721 65.4688C142.998 66.0969 141.506 67.4747 140.532 69.308H140.529Z" fill="#6A9619"/>
<path d="M142.635 73.6537H140.706V74.8314H142.635V73.6537Z" fill="#6A9619"/>
<path d="M147.926 73.6537H145.28V74.8314H147.926V73.6537Z" fill="#6A9619"/>
<path d="M152.5 73.6537H150.571V74.8314H152.5V73.6537Z" fill="#6A9619"/>
<path d="M130.583 161.045H120.094V146.595H111.942V77.4261H130.583V161.041V161.045ZM121.059 159.868H129.619V78.6078H112.907V145.421H121.059V159.872V159.868Z" fill="#6A9619"/>
<path d="M109.705 177.074H103.79V145.417H121.059V161.045H117.773V170.95H109.705V177.074ZM104.755 175.896H108.741V169.772H116.809V159.868H120.094V146.595H104.755V175.896Z" fill="#6A9619"/>
<path d="M170.18 209.962H159.752V177.074H152.246V170.95H135.116V177.074H126.832V170.95H116.809V159.868H170.183V209.962H170.18ZM160.717 208.785H169.216V161.045H117.77V169.772H127.793V175.896H134.148V169.772H153.207V175.896H160.713V208.785H160.717Z" fill="#6A9619"/>
<path d="M160.717 209.962H99.4859V175.896H108.741V169.772H127.8V175.896H134.155V169.772H153.214V175.896H160.72V209.962H160.717ZM100.45 208.785H159.752V177.074H152.246V170.95H135.116V177.074H126.832V170.95H109.702V177.074H100.447V208.785H100.45Z" fill="#6A9619"/>
<path d="M205.261 209.962H195.726C195.459 209.962 195.244 209.699 195.244 209.373V141.268L179.02 131.517C178.856 131.419 178.75 131.215 178.75 130.987V78.0189C178.75 77.7952 178.853 77.591 179.02 77.489C179.184 77.3908 179.38 77.4144 179.528 77.5518L205.556 101.981C205.675 102.091 205.746 102.263 205.746 102.448V209.373C205.746 209.699 205.531 209.962 205.264 209.962H205.261ZM196.208 208.785H204.778V102.738L179.715 79.2123V130.622L195.938 140.373C196.102 140.471 196.208 140.675 196.208 140.903V208.785Z" fill="#6A9619"/>
<path d="M195.726 209.962H169.698C169.431 209.962 169.216 209.699 169.216 209.373V125.256C169.216 125.051 169.303 124.863 169.444 124.757C169.586 124.651 169.762 124.639 169.913 124.73L195.942 140.373C196.106 140.471 196.212 140.675 196.212 140.903V209.373C196.212 209.699 195.996 209.962 195.729 209.962H195.726ZM170.18 208.785H195.244V141.268L170.18 126.202V208.785Z" fill="#6A9619"/>
<path d="M286.18 97.2152H268.722C268.455 97.2152 268.24 96.9521 268.24 96.6263V46.9596C268.24 46.7398 268.34 46.5396 268.5 46.4375C268.661 46.3354 268.854 46.3512 269.002 46.4807L286.46 61.5864C286.589 61.6963 286.663 61.8769 286.663 62.0653V96.6263C286.663 96.9521 286.447 97.2152 286.18 97.2152ZM269.208 96.0375H285.701V62.3715L269.208 48.102V96.0375Z" fill="#6A9619"/>
<path d="M249.933 209.962H220.128C219.861 209.962 219.646 209.699 219.646 209.373V110.66C219.646 110.334 219.861 110.071 220.128 110.071H249.933C250.2 110.071 250.415 110.334 250.415 110.66V209.373C250.415 209.699 250.2 209.962 249.933 209.962ZM220.61 208.785H249.451V111.249H220.61V208.785Z" fill="#6A9619"/>
<path d="M249.933 111.249H220.128C219.948 111.249 219.784 111.127 219.7 110.931C219.617 110.735 219.63 110.499 219.732 110.323L234.635 84.3863C234.815 84.0722 235.243 84.0722 235.426 84.3863L242.877 97.3525L250.329 110.319C250.431 110.499 250.444 110.735 250.361 110.927C250.277 111.124 250.113 111.245 249.933 111.245V111.249ZM221.054 110.071H249.004L235.027 85.7485L221.05 110.071H221.054Z" fill="#6A9619"/>
<path d="M241.029 105.632H229.032C228.852 105.632 228.688 105.51 228.605 105.314C228.521 105.117 228.534 104.882 228.637 104.705L234.635 94.267C234.815 93.953 235.243 93.953 235.426 94.267L241.424 104.705C241.527 104.886 241.54 105.121 241.456 105.314C241.373 105.51 241.209 105.632 241.029 105.632ZM229.961 104.454H240.103L237.637 100.163L235.034 95.6292L229.964 104.454H229.961Z" fill="#6A9619"/>
<path d="M246.886 118.837H223.178C222.912 118.837 222.696 118.574 222.696 118.248V115.732C222.696 115.406 222.912 115.143 223.178 115.143H246.886C247.153 115.143 247.368 115.406 247.368 115.732V118.248C247.368 118.574 247.153 118.837 246.886 118.837ZM223.657 117.659H246.4V116.321H223.657V117.659Z" fill="#6A9619"/>
<path d="M246.886 125.845H223.178C222.912 125.845 222.696 125.582 222.696 125.256V122.739C222.696 122.414 222.912 122.151 223.178 122.151H246.886C247.153 122.151 247.368 122.414 247.368 122.739V125.256C247.368 125.582 247.153 125.845 246.886 125.845ZM223.657 124.667H246.4V123.328H223.657V124.667Z" fill="#6A9619"/>
<path d="M246.886 132.856H223.178C222.912 132.856 222.696 132.593 222.696 132.267V129.75C222.696 129.425 222.912 129.162 223.178 129.162H246.886C247.153 129.162 247.368 129.425 247.368 129.75V132.267C247.368 132.593 247.153 132.856 246.886 132.856ZM223.657 131.678H246.4V130.339H223.657V131.678Z" fill="#6A9619"/>
<path d="M246.886 139.867H223.178C222.912 139.867 222.696 139.604 222.696 139.278V136.762C222.696 136.436 222.912 136.173 223.178 136.173H246.886C247.153 136.173 247.368 136.436 247.368 136.762V139.278C247.368 139.604 247.153 139.867 246.886 139.867ZM223.657 138.689H246.4V137.351H223.657V138.689Z" fill="#6A9619"/>
<path d="M246.886 146.874H223.178C222.912 146.874 222.696 146.611 222.696 146.285V143.773C222.696 143.447 222.912 143.184 223.178 143.184H246.886C247.153 143.184 247.368 143.447 247.368 143.773V146.285C247.368 146.611 247.153 146.874 246.886 146.874ZM223.657 145.696H246.4V144.362H223.657V145.696Z" fill="#6A9619"/>
<path d="M246.886 153.885H223.178C222.912 153.885 222.696 153.622 222.696 153.296V150.78C222.696 150.454 222.912 150.191 223.178 150.191H246.886C247.153 150.191 247.368 150.454 247.368 150.78V153.296C247.368 153.622 247.153 153.885 246.886 153.885ZM223.657 152.707H246.4V151.369H223.657V152.707Z" fill="#6A9619"/>
<path d="M246.886 160.892H223.178C222.912 160.892 222.696 160.629 222.696 160.303V157.787C222.696 157.461 222.912 157.198 223.178 157.198H246.886C247.153 157.198 247.368 157.461 247.368 157.787V160.303C247.368 160.629 247.153 160.892 246.886 160.892ZM223.657 159.715H246.4V158.376H223.657V159.715Z" fill="#6A9619"/>
<path d="M246.886 167.903H223.178C222.912 167.903 222.696 167.64 222.696 167.315V164.798C222.696 164.472 222.912 164.209 223.178 164.209H246.886C247.153 164.209 247.368 164.472 247.368 164.798V167.315C247.368 167.64 247.153 167.903 246.886 167.903ZM223.657 166.726H246.4V165.387H223.657V166.726Z" fill="#6A9619"/>
<path d="M246.886 174.915H223.178C222.912 174.915 222.696 174.652 222.696 174.326V171.81C222.696 171.484 222.912 171.221 223.178 171.221H246.886C247.153 171.221 247.368 171.484 247.368 171.81V174.326C247.368 174.652 247.153 174.915 246.886 174.915ZM223.657 173.737H246.4V172.398H223.657V173.737Z" fill="#6A9619"/>
<path d="M246.886 181.922H223.178C222.912 181.922 222.696 181.659 222.696 181.333V178.816C222.696 178.491 222.912 178.228 223.178 178.228H246.886C247.153 178.228 247.368 178.491 247.368 178.816V181.333C247.368 181.659 247.153 181.922 246.886 181.922ZM223.657 180.744H246.4V179.405H223.657V180.744Z" fill="#6A9619"/>
<path d="M246.886 188.933H223.178C222.912 188.933 222.696 188.67 222.696 188.344V185.832C222.696 185.506 222.912 185.243 223.178 185.243H246.886C247.153 185.243 247.368 185.506 247.368 185.832V188.344C247.368 188.67 247.153 188.933 246.886 188.933ZM223.657 187.755H246.4V186.42H223.657V187.755Z" fill="#6A9619"/>
<path d="M246.886 195.944H223.178C222.912 195.944 222.696 195.681 222.696 195.355V192.843C222.696 192.517 222.912 192.254 223.178 192.254H246.886C247.153 192.254 247.368 192.517 247.368 192.843V195.355C247.368 195.681 247.153 195.944 246.886 195.944ZM223.657 194.766H246.4V193.432H223.657V194.766Z" fill="#6A9619"/>
<path d="M182.788 200.286C180.775 200.286 179.03 198.547 178.606 196.179C176.796 195.54 175.513 193.487 175.513 191.155C175.513 188.823 176.783 186.793 178.573 186.142C178.943 183.673 180.695 181.863 182.788 181.863C184.88 181.863 186.648 183.688 187.005 186.173C188.773 186.86 189.982 188.854 189.982 191.155C189.982 193.455 188.76 195.473 186.976 196.148C186.562 198.535 184.813 200.286 182.788 200.286ZM182.788 183.04C181.078 183.04 179.66 184.603 179.486 186.676C179.464 186.931 179.313 187.139 179.107 187.194C177.583 187.586 176.477 189.255 176.477 191.159C176.477 193.063 177.59 194.739 179.12 195.127C179.319 195.178 179.47 195.375 179.499 195.622C179.727 197.612 181.139 199.112 182.784 199.112C184.43 199.112 185.851 197.604 186.073 195.602C186.099 195.359 186.246 195.163 186.443 195.108C187.957 194.684 189.014 193.059 189.014 191.159C189.014 189.259 187.963 187.645 186.455 187.213C186.253 187.155 186.105 186.946 186.086 186.699C185.919 184.615 184.501 183.044 182.784 183.044L182.788 183.04Z" fill="#6A9619"/>
<path d="M182.749 210.359C182.482 210.359 182.267 210.096 182.267 209.77V189.624C182.267 189.298 182.482 189.035 182.749 189.035C183.016 189.035 183.231 189.298 183.231 189.624V209.77C183.231 210.096 183.016 210.359 182.749 210.359Z" fill="#6A9619"/>
<path d="M182.749 196.015C181.518 196.015 180.518 194.794 180.518 193.29V191.155C180.518 190.829 180.734 190.566 181 190.566C181.267 190.566 181.483 190.829 181.483 191.155V193.29C181.483 194.142 182.052 194.837 182.749 194.837C183.447 194.837 184.016 194.142 184.016 193.29V191.155C184.016 190.829 184.231 190.566 184.498 190.566C184.765 190.566 184.98 190.829 184.98 191.155V193.29C184.98 194.794 183.98 196.015 182.749 196.015Z" fill="#6A9619"/>
<path d="M262.039 201.777C260.38 201.777 258.94 200.36 258.564 198.421C257.082 197.867 256.038 196.175 256.038 194.252C256.038 192.328 257.069 190.656 258.535 190.095C258.863 188.073 260.313 186.593 262.036 186.593C263.759 186.593 265.222 188.085 265.543 190.122C266.99 190.711 267.973 192.36 267.973 194.256C267.973 196.152 266.98 197.816 265.517 198.397C265.151 200.352 263.707 201.781 262.039 201.781V201.777ZM262.039 187.767C260.699 187.767 259.583 188.995 259.448 190.621C259.426 190.876 259.275 191.084 259.069 191.139C257.873 191.449 257.005 192.756 257.005 194.252C257.005 195.748 257.876 197.063 259.082 197.369C259.281 197.42 259.432 197.616 259.461 197.863C259.638 199.426 260.747 200.603 262.042 200.603C263.338 200.603 264.45 199.418 264.624 197.848C264.649 197.604 264.797 197.408 264.993 197.353C266.183 197.019 267.012 195.744 267.012 194.252C267.012 192.76 266.186 191.492 265.003 191.155C264.8 191.096 264.653 190.888 264.633 190.64C264.501 189.003 263.389 187.771 262.039 187.771V187.767Z" fill="#6A9619"/>
<path d="M262.007 209.962C261.74 209.962 261.525 209.699 261.525 209.374V193.008C261.525 192.682 261.74 192.419 262.007 192.419C262.274 192.419 262.489 192.682 262.489 193.008V209.374C262.489 209.699 262.274 209.962 262.007 209.962Z" fill="#6A9619"/>
<path d="M262.007 198.244C260.728 198.244 259.689 197.2 259.689 195.92V194.185C259.689 193.859 259.905 193.596 260.171 193.596C260.438 193.596 260.654 193.859 260.654 194.185V195.92C260.654 196.541 261.274 197.067 262.007 197.067C262.74 197.067 263.363 196.541 263.363 195.92V194.185C263.363 193.859 263.579 193.596 263.846 193.596C264.112 193.596 264.328 193.859 264.328 194.185V195.92C264.328 197.2 263.286 198.244 262.007 198.244Z" fill="#6A9619"/>
<path d="M412.702 204.553C410.779 204.553 409.114 202.896 408.7 200.639C406.973 200.023 405.755 198.06 405.755 195.834C405.755 193.608 406.964 191.669 408.671 191.041C409.028 188.689 410.706 186.962 412.702 186.962C414.698 186.962 416.389 188.701 416.736 191.072C418.42 191.736 419.571 193.64 419.571 195.834C419.571 198.028 418.408 199.956 416.707 200.608C416.305 202.88 414.637 204.553 412.702 204.553ZM412.702 188.14C411.088 188.14 409.748 189.616 409.584 191.575C409.561 191.83 409.41 192.038 409.204 192.093C407.764 192.466 406.723 194.04 406.723 195.838C406.723 197.636 407.774 199.222 409.22 199.587C409.42 199.638 409.571 199.834 409.6 200.082C409.815 201.962 411.149 203.375 412.705 203.375C414.261 203.375 415.604 201.95 415.81 200.062C415.836 199.818 415.984 199.622 416.18 199.567C417.61 199.167 418.61 197.632 418.61 195.838C418.61 194.044 417.617 192.521 416.193 192.113C415.99 192.054 415.842 191.846 415.823 191.598C415.666 189.628 414.325 188.144 412.702 188.144V188.14Z" fill="#6A9619"/>
<path d="M412.663 209.962C412.396 209.962 412.181 209.699 412.181 209.373V194.378C412.181 194.052 412.396 193.789 412.663 193.789C412.93 193.789 413.145 194.052 413.145 194.378V209.373C413.145 209.699 412.93 209.962 412.663 209.962Z" fill="#6A9619"/>
<path d="M412.663 200.411C411.21 200.411 410.027 199.233 410.027 197.789V195.755C410.027 195.43 410.243 195.167 410.509 195.167C410.776 195.167 410.992 195.43 410.992 195.755V197.789C410.992 198.57 411.757 199.233 412.663 199.233C413.57 199.233 414.335 198.574 414.335 197.789V195.755C414.335 195.43 414.55 195.167 414.817 195.167C415.084 195.167 415.299 195.43 415.299 195.755V197.789C415.299 199.233 414.116 200.411 412.663 200.411Z" fill="#6A9619"/>
<path d="M293.445 209.962H272.985C272.718 209.962 272.502 209.699 272.502 209.373V154.678H261.457C261.19 154.678 260.975 154.415 260.975 154.089V103.021C260.975 102.695 261.19 102.432 261.457 102.432H293.442C293.709 102.432 293.924 102.695 293.924 103.021V209.373C293.924 209.699 293.709 209.962 293.442 209.962H293.445ZM273.467 208.785H292.963V103.61H261.943V153.5H272.988C273.255 153.5 273.47 153.763 273.47 154.089V208.785H273.467Z" fill="#6A9619"/>
<path d="M272.985 209.962H249.933C249.666 209.962 249.451 209.699 249.451 209.373V154.089C249.451 153.763 249.666 153.5 249.933 153.5H272.985C273.251 153.5 273.467 153.763 273.467 154.089V209.373C273.467 209.699 273.251 209.962 272.985 209.962ZM250.415 208.784H272.502V154.678H250.415V208.784Z" fill="#6A9619"/>
<path d="M290.266 103.61H264.366C264.1 103.61 263.884 103.347 263.884 103.021V96.6263C263.884 96.3005 264.1 96.0375 264.366 96.0375H290.266C290.533 96.0375 290.748 96.3005 290.748 96.6263V103.021C290.748 103.347 290.533 103.61 290.266 103.61ZM264.845 102.432H289.781V97.2152H264.845V102.432Z" fill="#6A9619"/>
<path d="M344.184 209.962H308.245V69.0017H344.184V209.962ZM309.213 208.785H343.222V70.1794H309.213V208.785Z" fill="#6A9619"/>
<path d="M313.501 70.1796H308.248V54.0061H313.501V70.1796ZM309.213 69.0019H312.537V55.1838H309.213V69.0019Z" fill="#6A9619"/>
<path d="M344.184 70.1796H338.928V54.0061H344.184V70.1796ZM339.895 69.0019H343.222V55.1838H339.895V69.0019Z" fill="#6A9619"/>
<path d="M333.945 45.6366H328.603V34.6646H333.945V45.6366ZM329.567 44.4589H332.981V35.8422H329.567V44.4589Z" fill="#6A9619"/>
<path d="M323.829 45.6366H318.487V34.6646H323.829V45.6366ZM319.451 44.4589H322.865V35.8422H319.451V44.4589Z" fill="#6A9619"/>
<path d="M339.895 70.1795H328.603V44.459H339.895V70.1795ZM329.567 69.0018H338.931V45.6367H329.567V69.0018Z" fill="#6A9619"/>
<path d="M323.829 70.1795H312.536V44.459H323.829V70.1795ZM313.501 69.0018H322.865V45.6367H313.501V69.0018Z" fill="#6A9619"/>
<path d="M329.567 70.1796H322.865V23.304H329.567V70.1796ZM323.829 69.0019H328.603V24.4816H323.829V69.0019Z" fill="#6A9619"/>
<path d="M326.597 82.4235H319.895V76.1072H326.597V82.4235ZM320.862 81.2458H325.636V77.2849H320.862V81.2458Z" fill="#6A9619"/>
<path d="M320.862 82.4235H314.163V76.1072H320.862V82.4235ZM315.124 81.2458H319.895V77.2849H315.124V81.2458Z" fill="#6A9619"/>
<path d="M315.124 82.4235H308.248V76.1072H315.124V82.4235ZM309.213 81.2458H314.16V77.2849H309.213V81.2458Z" fill="#6A9619"/>
<path d="M344.184 82.4235H337.105V76.1072H344.184V82.4235ZM338.07 81.2458H343.219V77.2849H338.07V81.2458Z" fill="#6A9619"/>
<path d="M332.335 82.4235H325.633V76.1072H332.335V82.4235ZM326.597 81.2458H331.37V77.2849H326.597V81.2458Z" fill="#6A9619"/>
<path d="M338.07 82.4235H331.367V76.1072H338.07V82.4235ZM332.335 81.2458H337.108V77.2849H332.335V81.2458Z" fill="#6A9619"/>
<path d="M326.597 92.1276H319.895V85.8113H326.597V92.1276ZM320.862 90.9499H325.636V86.989H320.862V90.9499Z" fill="#6A9619"/>
<path d="M320.862 92.1276H314.163V85.8113H320.862V92.1276ZM315.124 90.9499H319.895V86.989H315.124V90.9499Z" fill="#6A9619"/>
<path d="M315.124 92.1276H308.248V85.8113H315.124V92.1276ZM309.213 90.9499H314.16V86.989H309.213V90.9499Z" fill="#6A9619"/>
<path d="M344.184 92.1276H337.105V85.8113H344.184V92.1276ZM338.07 90.9499H343.219V86.989H338.07V90.9499Z" fill="#6A9619"/>
<path d="M332.335 92.1276H325.633V85.8113H332.335V92.1276ZM326.597 90.9499H331.37V86.989H326.597V90.9499Z" fill="#6A9619"/>
<path d="M338.07 92.1276H331.367V85.8113H338.07V92.1276ZM332.335 90.9499H337.108V86.989H332.335V90.9499Z" fill="#6A9619"/>
<path d="M326.597 101.832H319.895V95.5153H326.597V101.832ZM320.862 100.654H325.636V96.6929H320.862V100.654Z" fill="#6A9619"/>
<path d="M320.862 101.832H314.163V95.5153H320.862V101.832ZM315.124 100.654H319.895V96.6929H315.124V100.654Z" fill="#6A9619"/>
<path d="M315.124 101.832H308.248V95.5153H315.124V101.832ZM309.213 100.654H314.16V96.6929H309.213V100.654Z" fill="#6A9619"/>
<path d="M344.184 101.832H337.105V95.5153H344.184V101.832ZM338.07 100.654H343.219V96.6929H338.07V100.654Z" fill="#6A9619"/>
<path d="M332.335 101.832H325.633V95.5153H332.335V101.832ZM326.597 100.654H331.37V96.6929H326.597V100.654Z" fill="#6A9619"/>
<path d="M338.07 101.832H331.367V95.5153H338.07V101.832ZM332.335 100.654H337.108V96.6929H332.335V100.654Z" fill="#6A9619"/>
<path d="M326.597 111.536H319.895V105.219H326.597V111.536ZM320.862 110.358H325.636V106.397H320.862V110.358Z" fill="#6A9619"/>
<path d="M320.862 111.536H314.163V105.219H320.862V111.536ZM315.124 110.358H319.895V106.397H315.124V110.358Z" fill="#6A9619"/>
<path d="M315.124 111.536H308.248V105.219H315.124V111.536ZM309.213 110.358H314.16V106.397H309.213V110.358Z" fill="#6A9619"/>
<path d="M344.184 111.536H337.105V105.219H344.184V111.536ZM338.07 110.358H343.219V106.397H338.07V110.358Z" fill="#6A9619"/>
<path d="M332.335 111.536H325.633V105.219H332.335V111.536ZM326.597 110.358H331.37V106.397H326.597V110.358Z" fill="#6A9619"/>
<path d="M338.07 111.536H331.367V105.219H338.07V111.536ZM332.335 110.358H337.108V106.397H332.335V110.358Z" fill="#6A9619"/>
<path d="M326.597 121.244H319.895V114.927H326.597V121.244ZM320.862 120.066H325.636V116.105H320.862V120.066Z" fill="#6A9619"/>
<path d="M320.862 121.244H314.163V114.927H320.862V121.244ZM315.124 120.066H319.895V116.105H315.124V120.066Z" fill="#6A9619"/>
<path d="M315.124 121.244H308.248V114.927H315.124V121.244ZM309.213 120.066H314.16V116.105H309.213V120.066Z" fill="#6A9619"/>
<path d="M344.184 121.244H337.105V114.927H344.184V121.244ZM338.07 120.066H343.219V116.105H338.07V120.066Z" fill="#6A9619"/>
<path d="M332.335 121.244H325.633V114.927H332.335V121.244ZM326.597 120.066H331.37V116.105H326.597V120.066Z" fill="#6A9619"/>
<path d="M338.07 121.244H331.367V114.927H338.07V121.244ZM332.335 120.066H337.108V116.105H332.335V120.066Z" fill="#6A9619"/>
<path d="M326.597 130.948H319.895V124.631H326.597V130.948ZM320.862 129.77H325.636V125.809H320.862V129.77Z" fill="#6A9619"/>
<path d="M320.862 130.948H314.163V124.631H320.862V130.948ZM315.124 129.77H319.895V125.809H315.124V129.77Z" fill="#6A9619"/>
<path d="M315.124 130.948H308.248V124.631H315.124V130.948ZM309.213 129.77H314.16V125.809H309.213V129.77Z" fill="#6A9619"/>
<path d="M344.184 130.948H337.105V124.631H344.184V130.948ZM338.07 129.77H343.219V125.809H338.07V129.77Z" fill="#6A9619"/>
<path d="M332.335 130.948H325.633V124.631H332.335V130.948ZM326.597 129.77H331.37V125.809H326.597V129.77Z" fill="#6A9619"/>
<path d="M338.07 130.948H331.367V124.631H338.07V130.948ZM332.335 129.77H337.108V125.809H332.335V129.77Z" fill="#6A9619"/>
<path d="M326.597 140.652H319.895V134.336H326.597V140.652ZM320.862 139.474H325.636V135.513H320.862V139.474Z" fill="#6A9619"/>
<path d="M320.862 140.652H314.163V134.336H320.862V140.652ZM315.124 139.474H319.895V135.513H315.124V139.474Z" fill="#6A9619"/>
<path d="M315.124 140.652H308.248V134.336H315.124V140.652ZM309.213 139.474H314.16V135.513H309.213V139.474Z" fill="#6A9619"/>
<path d="M344.184 140.652H337.105V134.336H344.184V140.652ZM338.07 139.474H343.219V135.513H338.07V139.474Z" fill="#6A9619"/>
<path d="M332.335 140.652H325.633V134.336H332.335V140.652ZM326.597 139.474H331.37V135.513H326.597V139.474Z" fill="#6A9619"/>
<path d="M338.07 140.652H331.367V134.336H338.07V140.652ZM332.335 139.474H337.108V135.513H332.335V139.474Z" fill="#6A9619"/>
<path d="M326.597 150.356H319.895V144.04H326.597V150.356ZM320.862 149.178H325.636V145.217H320.862V149.178Z" fill="#6A9619"/>
<path d="M320.862 150.356H314.163V144.04H320.862V150.356ZM315.124 149.178H319.895V145.217H315.124V149.178Z" fill="#6A9619"/>
<path d="M315.124 150.356H308.248V144.04H315.124V150.356ZM309.213 149.178H314.16V145.217H309.213V149.178Z" fill="#6A9619"/>
<path d="M344.184 150.356H337.105V144.04H344.184V150.356ZM338.07 149.178H343.219V145.217H338.07V149.178Z" fill="#6A9619"/>
<path d="M332.335 150.356H325.633V144.04H332.335V150.356ZM326.597 149.178H331.37V145.217H326.597V149.178Z" fill="#6A9619"/>
<path d="M338.07 150.356H331.367V144.04H338.07V150.356ZM332.335 149.178H337.108V145.217H332.335V149.178Z" fill="#6A9619"/>
<path d="M326.597 160.06H319.895V153.744H326.597V160.06ZM320.862 158.882H325.636V154.921H320.862V158.882Z" fill="#6A9619"/>
<path d="M320.862 160.06H314.163V153.744H320.862V160.06ZM315.124 158.882H319.895V154.921H315.124V158.882Z" fill="#6A9619"/>
<path d="M315.124 160.06H308.248V153.744H315.124V160.06ZM309.213 158.882H314.16V154.921H309.213V158.882Z" fill="#6A9619"/>
<path d="M344.184 160.06H337.105V153.744H344.184V160.06ZM338.07 158.882H343.219V154.921H338.07V158.882Z" fill="#6A9619"/>
<path d="M332.335 160.06H325.633V153.744H332.335V160.06ZM326.597 158.882H331.37V154.921H326.597V158.882Z" fill="#6A9619"/>
<path d="M338.07 160.06H331.367V153.744H338.07V160.06ZM332.335 158.882H337.108V154.921H332.335V158.882Z" fill="#6A9619"/>
<path d="M326.597 169.764H319.895V163.448H326.597V169.764ZM320.862 168.587H325.636V164.626H320.862V168.587Z" fill="#6A9619"/>
<path d="M320.862 169.764H314.163V163.448H320.862V169.764ZM315.124 168.587H319.895V164.626H315.124V168.587Z" fill="#6A9619"/>
<path d="M315.124 169.764H308.248V163.448H315.124V169.764ZM309.213 168.587H314.16V164.626H309.213V168.587Z" fill="#6A9619"/>
<path d="M344.184 169.764H337.105V163.448H344.184V169.764ZM338.07 168.587H343.219V164.626H338.07V168.587Z" fill="#6A9619"/>
<path d="M332.335 169.764H325.633V163.448H332.335V169.764ZM326.597 168.587H331.37V164.626H326.597V168.587Z" fill="#6A9619"/>
<path d="M338.07 169.764H331.367V163.448H338.07V169.764ZM332.335 168.587H337.108V164.626H332.335V168.587Z" fill="#6A9619"/>
<path d="M372.424 209.962H358.803V122.649H372.424V209.962ZM359.768 208.785H371.459V123.827H359.768V208.785Z" fill="#6A9619"/>
<path d="M368.261 94.8127H362.969C362.831 94.8127 362.703 94.742 362.609 94.6164C362.516 94.4908 362.474 94.3259 362.487 94.161L365.133 64.2754C365.159 63.9771 365.368 63.7494 365.612 63.7494C365.856 63.7494 366.065 63.9771 366.091 64.2754L368.736 94.161C368.752 94.3259 368.707 94.4947 368.614 94.6164C368.521 94.7381 368.392 94.8127 368.254 94.8127H368.261ZM363.506 93.635H367.724L366.759 82.7375L365.615 69.8144L363.506 93.635Z" fill="#6A9619"/>
<path d="M371.218 123.827H360.012C356.997 123.827 354.544 120.832 354.544 117.149V100.312C354.544 96.6302 356.997 93.635 360.012 93.635H371.218C374.233 93.635 376.686 96.6302 376.686 100.312V117.149C376.686 120.832 374.233 123.827 371.218 123.827ZM360.012 94.8127C357.531 94.8127 355.509 97.278 355.509 100.312V117.149C355.509 120.18 357.531 122.649 360.012 122.649H371.218C373.7 122.649 375.722 120.18 375.722 117.149V100.312C375.722 97.278 373.7 94.8127 371.218 94.8127H360.012Z" fill="#6A9619"/>
<path d="M364.95 107.673H359.106V100.536H364.95V107.673ZM360.07 106.495H363.985V101.714H360.07V106.495Z" fill="#6A9619"/>
<path d="M372.121 107.673H366.277V100.536H372.121V107.673ZM367.242 106.495H371.157V101.714H367.242V106.495Z" fill="#6A9619"/>
<path d="M364.95 116.926H359.106V109.789H364.95V116.926ZM360.07 115.748H363.985V110.966H360.07V115.748Z" fill="#6A9619"/>
<path d="M372.121 116.926H366.277V109.789H372.121V116.926ZM367.242 115.748H371.157V110.966H367.242V115.748Z" fill="#6A9619"/>
<path d="M379.518 155.298H375.169V149.987H379.518V155.298ZM376.133 154.12H378.554V151.164H376.133V154.12Z" fill="#6A9619"/>
<path d="M353.67 170.907H349.32V165.595H353.67V170.907ZM350.285 169.729H352.705V166.773H350.285V169.729Z" fill="#6A9619"/>
<path d="M389.866 172.889H385.584V167.66H389.866V172.889ZM386.548 171.711H388.901V168.838H386.548V171.711Z" fill="#6A9619"/>
<path d="M384.121 172.889H379.839V167.66H384.121V172.889ZM380.804 171.711H383.157V168.838H380.804V171.711Z" fill="#6A9619"/>
<path d="M391.524 189.062H387.242V183.833H391.524V189.062ZM388.207 187.885H390.56V185.011H388.207V187.885Z" fill="#6A9619"/>
<path d="M398.68 189.062H394.398V183.833H398.68V189.062ZM395.362 187.885H397.716V185.011H395.362V187.885Z" fill="#6A9619"/>
<path d="M378.374 172.889H374.092V167.66H378.374V172.889ZM375.056 171.711H377.409V168.838H375.056V171.711Z" fill="#6A9619"/>
<path d="M453.385 209.962H382.552V178.232H453.385V209.962ZM383.517 208.785H452.421V179.409H383.517V208.785Z" fill="#6A9619"/>
<path d="M464.909 209.962H422.705V124.726H464.909V209.962ZM423.67 208.784H463.945V125.903H423.67V208.784Z" fill="#6A9619"/>
<path d="M459.149 125.903H431.5V81.5481H459.149V125.903ZM432.465 124.726H458.184V82.7258H432.465V124.726Z" fill="#6A9619"/>
<path d="M451.566 82.7256H439.08V37.1533H451.566V82.7256ZM440.045 81.5479H450.601V38.331H440.045V81.5479Z" fill="#6A9619"/>
<path d="M447.03 38.3311H443.619C443.484 38.3311 443.356 38.2604 443.262 38.1388C443.169 38.0171 443.127 37.8522 443.137 37.6873L444.844 14.9071C444.867 14.6048 445.075 14.3732 445.323 14.3732C445.571 14.3732 445.779 14.6048 445.802 14.9071L446.85 28.8822L447.509 37.6873C447.522 37.8522 447.477 38.0171 447.384 38.1388C447.294 38.2604 447.162 38.3311 447.027 38.3311H447.03ZM444.146 37.1534H446.503L445.326 21.4275L444.15 37.1534H444.146Z" fill="#6A9619"/>
<path d="M399.731 202.582H398.326C398.481 202.052 398.567 201.479 398.567 200.886C398.567 198.075 396.7 195.795 394.398 195.795H389.83C388.204 195.795 386.802 196.933 386.114 198.59C385.966 198.562 385.815 198.543 385.661 198.543H381.688C380.007 198.543 378.644 200.207 378.644 202.26C378.644 202.37 378.65 202.476 378.656 202.582H377.682C376.146 202.582 374.902 204.101 374.902 205.978C374.902 207.854 376.146 209.373 377.682 209.373H399.731C401.268 209.373 402.512 207.854 402.512 205.978C402.512 204.101 401.268 202.582 399.731 202.582Z" fill="white"/>
<path d="M399.731 209.962H377.682C375.886 209.962 374.42 208.176 374.42 205.978C374.42 203.779 375.882 201.993 377.682 201.993H378.168C378.28 199.744 379.817 197.954 381.688 197.954H385.661C385.722 197.954 385.783 197.954 385.847 197.962C386.686 196.25 388.184 195.206 389.83 195.206H394.398C396.963 195.206 399.05 197.754 399.05 200.886C399.05 201.259 399.017 201.628 398.96 201.993H399.731C401.528 201.993 402.994 203.779 402.994 205.978C402.994 208.176 401.531 209.962 399.731 209.962ZM377.682 203.171C376.416 203.171 375.384 204.431 375.384 205.978C375.384 207.524 376.416 208.784 377.682 208.784H399.731C400.998 208.784 402.029 207.524 402.029 205.978C402.029 204.431 400.998 203.171 399.731 203.171H397.645L397.873 202.386C398.014 201.895 398.088 201.389 398.088 200.886C398.088 198.401 396.433 196.383 394.401 196.383H389.833C388.438 196.383 387.178 197.33 386.545 198.857L386.387 199.237L386.043 199.175C385.899 199.147 385.777 199.135 385.664 199.135H381.691C380.28 199.135 379.129 200.541 379.129 202.264C379.129 202.354 379.135 202.445 379.142 202.535L379.187 203.175H377.686L377.682 203.171Z" fill="#6A9619"/>
<path d="M315.32 160.413H293.445V209.373H315.32V160.413Z" fill="white"/>
<path d="M315.806 209.962H292.966V159.824H315.806V209.962ZM293.927 208.785H314.838V161.002H293.927V208.785Z" fill="#6A9619"/>
<path d="M331.927 174.918H315.32V209.373H331.927V174.918Z" fill="white"/>
<path d="M332.409 209.962H314.838V174.33H332.409V209.962ZM315.806 208.785H331.448V175.507H315.806V208.785Z" fill="#6A9619"/>
<path d="M349.889 190.57H331.927V209.373H349.889V190.57Z" fill="white"/>
<path d="M350.375 209.962H331.448V189.981H350.375V209.962ZM332.409 208.785H349.407V191.159H332.409V208.785Z" fill="#6A9619"/>
<path d="M322.254 202.582H320.849C321.004 202.052 321.09 201.479 321.09 200.886C321.09 198.075 319.223 195.795 316.921 195.795H312.353C310.727 195.795 309.325 196.933 308.637 198.59C308.489 198.562 308.338 198.543 308.184 198.543H304.211C302.53 198.543 301.167 200.207 301.167 202.26C301.167 202.37 301.173 202.476 301.179 202.582H300.205C298.669 202.582 297.425 204.101 297.425 205.978C297.425 207.854 298.669 209.373 300.205 209.373H322.254C323.791 209.373 325.035 207.854 325.035 205.978C325.035 204.101 323.791 202.582 322.254 202.582Z" fill="white"/>
<path d="M322.254 209.962H300.205C298.408 209.962 296.943 208.176 296.943 205.978C296.943 203.779 298.405 201.993 300.205 201.993H300.691C300.803 199.744 302.34 197.954 304.211 197.954H308.184C308.245 197.954 308.306 197.954 308.37 197.962C309.209 196.25 310.707 195.206 312.353 195.206H316.921C319.486 195.206 321.572 197.754 321.572 200.886C321.572 201.259 321.54 201.628 321.479 201.993H322.251C324.048 201.993 325.514 203.779 325.514 205.978C325.514 208.176 324.051 209.962 322.251 209.962H322.254ZM300.205 203.171C298.939 203.171 297.907 204.431 297.907 205.978C297.907 207.524 298.939 208.784 300.205 208.784H322.254C323.521 208.784 324.552 207.524 324.552 205.978C324.552 204.431 323.521 203.171 322.254 203.171H320.168L320.396 202.386C320.537 201.895 320.611 201.389 320.611 200.886C320.611 198.401 318.956 196.383 316.924 196.383H312.356C310.961 196.383 309.701 197.33 309.068 198.857L308.91 199.237L308.566 199.175C308.422 199.147 308.3 199.135 308.187 199.135H304.214C302.803 199.135 301.652 200.541 301.652 202.264C301.652 202.354 301.658 202.445 301.665 202.535L301.71 203.175H300.209L300.205 203.171Z" fill="#6A9619"/>
<path d="M416.299 179.409H392.244V93.9451L407.086 81.5245L416.299 73.8146V179.409ZM393.209 178.232H415.334V76.0482L393.209 94.5653V178.232Z" fill="#6A9619"/>
<path d="M454.877 87.6956H435.773V88.8732H454.877V87.6956Z" fill="#6A9619"/>
<path d="M460.033 130.528H427.63V131.705H460.033V130.528Z" fill="#6A9619"/>
<path d="M460.033 136.471H427.63V137.649H460.033V136.471Z" fill="#6A9619"/>
<path d="M460.033 142.418H427.63V143.596H460.033V142.418Z" fill="#6A9619"/>
<path d="M460.033 148.365H427.63V149.543H460.033V148.365Z" fill="#6A9619"/>
<path d="M460.033 154.313H427.63V155.49H460.033V154.313Z" fill="#6A9619"/>
<path d="M460.033 160.26H427.63V161.438H460.033V160.26Z" fill="#6A9619"/>
<path d="M460.033 166.204H427.63V167.381H460.033V166.204Z" fill="#6A9619"/>
<path d="M460.033 172.151H427.63V173.329H460.033V172.151Z" fill="#6A9619"/>
<path d="M460.132 178.232H427.73V179.409H460.132V178.232Z" fill="#6A9619"/>
<path d="M460.029 184.045H452.903V185.223H460.029V184.045Z" fill="#6A9619"/>
<path d="M460.029 189.993H452.903V191.17H460.029V189.993Z" fill="#6A9619"/>
<path d="M454.877 93.6193H435.773V94.7969H454.877V93.6193Z" fill="#6A9619"/>
<path d="M454.877 99.543H435.773V100.721H454.877V99.543Z" fill="#6A9619"/>
<path d="M454.877 105.471H435.773V106.648H454.877V105.471Z" fill="#6A9619"/>
<path d="M454.877 111.395H435.773V112.572H454.877V111.395Z" fill="#6A9619"/>
<path d="M454.877 117.318H435.773V118.496H454.877V117.318Z" fill="#6A9619"/>
<path d="M447.027 41.5933H443.616V42.7709H447.027V41.5933Z" fill="#6A9619"/>
<path d="M412.666 85.8113H409.253V86.989H412.666V85.8113Z" fill="#6A9619"/>
<path d="M412.666 90.2864H409.253V91.4641H412.666V90.2864Z" fill="#6A9619"/>
<path d="M412.666 94.7616H409.253V95.9393H412.666V94.7616Z" fill="#6A9619"/>
<path d="M412.666 99.2367H409.253V100.414H412.666V99.2367Z" fill="#6A9619"/>
<path d="M412.666 103.712H409.253V104.89H412.666V103.712Z" fill="#6A9619"/>
<path d="M412.666 108.187H409.253V109.365H412.666V108.187Z" fill="#6A9619"/>
<path d="M412.666 112.658H409.253V113.836H412.666V112.658Z" fill="#6A9619"/>
<path d="M412.666 117.134H409.253V118.311H412.666V117.134Z" fill="#6A9619"/>
<path d="M412.666 121.609H409.253V122.787H412.666V121.609Z" fill="#6A9619"/>
<path d="M412.666 126.084H409.253V127.262H412.666V126.084Z" fill="#6A9619"/>
<path d="M412.666 130.559H409.253V131.737H412.666V130.559Z" fill="#6A9619"/>
<path d="M412.666 135.034H409.253V136.212H412.666V135.034Z" fill="#6A9619"/>
<path d="M412.666 139.51H409.253V140.687H412.666V139.51Z" fill="#6A9619"/>
<path d="M412.666 143.985H409.253V145.163H412.666V143.985Z" fill="#6A9619"/>
<path d="M412.666 148.46H409.253V149.637H412.666V148.46Z" fill="#6A9619"/>
<path d="M412.666 152.931H409.253V154.109H412.666V152.931Z" fill="#6A9619"/>
<path d="M412.666 157.406H409.253V158.584H412.666V157.406Z" fill="#6A9619"/>
<path d="M367.319 129.468H363.908V130.646H367.319V129.468Z" fill="#6A9619"/>
<path d="M367.319 135.207H363.908V136.385H367.319V135.207Z" fill="#6A9619"/>
<path d="M367.319 140.946H363.908V142.124H367.319V140.946Z" fill="#6A9619"/>
<path d="M367.319 146.686H363.908V147.863H367.319V146.686Z" fill="#6A9619"/>
<path d="M367.319 152.425H363.908V153.602H367.319V152.425Z" fill="#6A9619"/>
<path d="M367.319 158.164H363.908V159.342H367.319V158.164Z" fill="#6A9619"/>
<path d="M367.319 163.903H363.908V165.081H367.319V163.903Z" fill="#6A9619"/>
<path d="M367.319 169.642H363.908V170.82H367.319V169.642Z" fill="#6A9619"/>
<path d="M367.319 175.382H363.908V176.56H367.319V175.382Z" fill="#6A9619"/>
<path d="M367.319 181.125H363.908V182.302H367.319V181.125Z" fill="#6A9619"/>
<path d="M367.319 186.864H363.908V188.042H367.319V186.864Z" fill="#6A9619"/>
<path d="M367.319 192.603H363.908V193.781H367.319V192.603Z" fill="#6A9619"/>
<path d="M367.319 198.343H363.908V199.52H367.319V198.343Z" fill="#6A9619"/>
<path d="M412.666 161.881H409.253V163.059H412.666V161.881Z" fill="#6A9619"/>
<path d="M412.666 166.357H409.253V167.534H412.666V166.357Z" fill="#6A9619"/>
<path d="M412.666 170.832H409.253V172.009H412.666V170.832Z" fill="#6A9619"/>
<path d="M412.666 175.307H409.253V176.485H412.666V175.307Z" fill="#6A9619"/>
<path d="M84.6893 88.406H82.6481V89.5837H84.6893V88.406Z" fill="#6A9619"/>
<path d="M84.6893 92.8773H82.6481V94.055H84.6893V92.8773Z" fill="#6A9619"/>
<path d="M84.6893 97.3525H82.6481V98.5302H84.6893V97.3525Z" fill="#6A9619"/>
<path d="M84.6893 101.828H82.6481V103.005H84.6893V101.828Z" fill="#6A9619"/>
<path d="M84.6893 106.303H82.6481V107.481H84.6893V106.303Z" fill="#6A9619"/>
<path d="M84.6893 110.778H82.6481V111.956H84.6893V110.778Z" fill="#6A9619"/>
<path d="M84.6893 115.253H82.6481V116.431H84.6893V115.253Z" fill="#6A9619"/>
<path d="M84.6893 119.728H82.6481V120.906H84.6893V119.728Z" fill="#6A9619"/>
<path d="M84.6893 124.204H82.6481V125.381H84.6893V124.204Z" fill="#6A9619"/>
<path d="M84.6893 128.675H82.6481V129.853H84.6893V128.675Z" fill="#6A9619"/>
<path d="M84.6893 133.15H82.6481V134.328H84.6893V133.15Z" fill="#6A9619"/>
<path d="M84.6893 137.625H82.6481V138.803H84.6893V137.625Z" fill="#6A9619"/>
<path d="M84.6893 142.101H82.6481V143.278H84.6893V142.101Z" fill="#6A9619"/>
<path d="M84.6893 146.576H82.6481V147.753H84.6893V146.576Z" fill="#6A9619"/>
<path d="M84.6893 151.051H82.6481V152.228H84.6893V151.051Z" fill="#6A9619"/>
<path d="M84.6893 155.526H82.6481V156.704H84.6893V155.526Z" fill="#6A9619"/>
<path d="M84.6893 160.001H82.6481V161.179H84.6893V160.001Z" fill="#6A9619"/>
<path d="M84.6893 164.473H82.6481V165.65H84.6893V164.473Z" fill="#6A9619"/>
<path d="M84.6893 168.948H82.6481V170.125H84.6893V168.948Z" fill="#6A9619"/>
<path d="M84.6893 173.423H82.6481V174.601H84.6893V173.423Z" fill="#6A9619"/>
<path d="M84.6893 177.898H82.6481V179.076H84.6893V177.898Z" fill="#6A9619"/>
<path d="M33.9959 153.379H31.9547V154.557H33.9959V153.379Z" fill="#6A9619"/>
<path d="M33.9959 157.854H31.9547V159.031H33.9959V157.854Z" fill="#6A9619"/>
<path d="M33.9959 162.329H31.9547V163.507H33.9959V162.329Z" fill="#6A9619"/>
<path d="M33.9959 166.804H31.9547V167.982H33.9959V166.804Z" fill="#6A9619"/>
<path d="M33.9959 171.275H31.9547V172.453H33.9959V171.275Z" fill="#6A9619"/>
<path d="M33.9959 175.75H31.9547V176.928H33.9959V175.75Z" fill="#6A9619"/>
<path d="M33.9959 180.226H31.9547V181.404H33.9959V180.226Z" fill="#6A9619"/>
<path d="M38.4963 153.379H36.455V154.557H38.4963V153.379Z" fill="#6A9619"/>
<path d="M38.4963 157.854H36.455V159.031H38.4963V157.854Z" fill="#6A9619"/>
<path d="M38.4963 162.329H36.455V163.507H38.4963V162.329Z" fill="#6A9619"/>
<path d="M38.4963 166.804H36.455V167.982H38.4963V166.804Z" fill="#6A9619"/>
<path d="M38.4963 171.275H36.455V172.453H38.4963V171.275Z" fill="#6A9619"/>
<path d="M38.4963 175.75H36.455V176.928H38.4963V175.75Z" fill="#6A9619"/>
<path d="M38.4963 180.226H36.455V181.404H38.4963V180.226Z" fill="#6A9619"/>
<path d="M90.4948 88.406H88.4536V89.5837H90.4948V88.406Z" fill="#6A9619"/>
<path d="M90.4948 92.8773H88.4536V94.055H90.4948V92.8773Z" fill="#6A9619"/>
<path d="M90.4948 97.3525H88.4536V98.5302H90.4948V97.3525Z" fill="#6A9619"/>
<path d="M90.4948 101.828H88.4536V103.005H90.4948V101.828Z" fill="#6A9619"/>
<path d="M90.4948 106.303H88.4536V107.481H90.4948V106.303Z" fill="#6A9619"/>
<path d="M90.4948 110.778H88.4536V111.956H90.4948V110.778Z" fill="#6A9619"/>
<path d="M90.4948 115.253H88.4536V116.431H90.4948V115.253Z" fill="#6A9619"/>
<path d="M90.4948 119.728H88.4536V120.906H90.4948V119.728Z" fill="#6A9619"/>
<path d="M90.4948 124.204H88.4536V125.381H90.4948V124.204Z" fill="#6A9619"/>
<path d="M90.4948 128.675H88.4536V129.853H90.4948V128.675Z" fill="#6A9619"/>
<path d="M90.4948 133.15H88.4536V134.328H90.4948V133.15Z" fill="#6A9619"/>
<path d="M90.4948 137.625H88.4536V138.803H90.4948V137.625Z" fill="#6A9619"/>
<path d="M90.4948 142.101H88.4536V143.278H90.4948V142.101Z" fill="#6A9619"/>
<path d="M90.4948 146.576H88.4536V147.753H90.4948V146.576Z" fill="#6A9619"/>
<path d="M90.4948 151.051H88.4536V152.228H90.4948V151.051Z" fill="#6A9619"/>
<path d="M90.4948 155.526H88.4536V156.704H90.4948V155.526Z" fill="#6A9619"/>
<path d="M90.4948 160.001H88.4536V161.179H90.4948V160.001Z" fill="#6A9619"/>
<path d="M90.4948 164.473H88.4536V165.65H90.4948V164.473Z" fill="#6A9619"/>
<path d="M90.4948 168.948H88.4536V170.125H90.4948V168.948Z" fill="#6A9619"/>
<path d="M90.4948 173.423H88.4536V174.601H90.4948V173.423Z" fill="#6A9619"/>
<path d="M90.4948 177.898H88.4536V179.076H90.4948V177.898Z" fill="#6A9619"/>
<path d="M96.3002 88.406H94.259V89.5837H96.3002V88.406Z" fill="#6A9619"/>
<path d="M96.3002 92.8773H94.259V94.055H96.3002V92.8773Z" fill="#6A9619"/>
<path d="M96.3002 97.3525H94.259V98.5302H96.3002V97.3525Z" fill="#6A9619"/>
<path d="M96.3002 101.828H94.259V103.005H96.3002V101.828Z" fill="#6A9619"/>
<path d="M96.3002 106.303H94.259V107.481H96.3002V106.303Z" fill="#6A9619"/>
<path d="M96.3002 110.778H94.259V111.956H96.3002V110.778Z" fill="#6A9619"/>
<path d="M96.3002 115.253H94.259V116.431H96.3002V115.253Z" fill="#6A9619"/>
<path d="M96.3002 119.728H94.259V120.906H96.3002V119.728Z" fill="#6A9619"/>
<path d="M96.3002 124.204H94.259V125.381H96.3002V124.204Z" fill="#6A9619"/>
<path d="M96.3002 128.675H94.259V129.853H96.3002V128.675Z" fill="#6A9619"/>
<path d="M96.3002 133.15H94.259V134.328H96.3002V133.15Z" fill="#6A9619"/>
<path d="M96.3002 137.625H94.259V138.803H96.3002V137.625Z" fill="#6A9619"/>
<path d="M96.3002 142.101H94.259V143.278H96.3002V142.101Z" fill="#6A9619"/>
<path d="M96.3002 146.576H94.259V147.753H96.3002V146.576Z" fill="#6A9619"/>
<path d="M96.3002 151.051H94.259V152.228H96.3002V151.051Z" fill="#6A9619"/>
<path d="M96.3002 155.526H94.259V156.704H96.3002V155.526Z" fill="#6A9619"/>
<path d="M96.3002 160.001H94.259V161.179H96.3002V160.001Z" fill="#6A9619"/>
<path d="M96.3002 164.473H94.259V165.65H96.3002V164.473Z" fill="#6A9619"/>
<path d="M96.3002 168.948H94.259V170.125H96.3002V168.948Z" fill="#6A9619"/>
<path d="M96.3002 173.423H94.259V174.601H96.3002V173.423Z" fill="#6A9619"/>
<path d="M96.3002 177.898H94.259V179.076H96.3002V177.898Z" fill="#6A9619"/>
<path d="M447.027 44.8633H443.616V46.041H447.027V44.8633Z" fill="#6A9619"/>
<path d="M447.027 48.1334H443.616V49.3111H447.027V48.1334Z" fill="#6A9619"/>
<path d="M447.027 51.4033H443.616V52.581H447.027V51.4033Z" fill="#6A9619"/>
<path d="M447.027 54.6772H443.616V55.8549H447.027V54.6772Z" fill="#6A9619"/>
<path d="M447.027 57.9474H443.616V59.1251H447.027V57.9474Z" fill="#6A9619"/>
<path d="M447.027 61.2174H443.616V62.3951H447.027V61.2174Z" fill="#6A9619"/>
<path d="M447.027 64.4873H443.616V65.665H447.027V64.4873Z" fill="#6A9619"/>
<path d="M447.027 67.7612H443.616V68.9389H447.027V67.7612Z" fill="#6A9619"/>
<path d="M447.027 71.0314H443.616V72.2091H447.027V71.0314Z" fill="#6A9619"/>
<path d="M447.027 74.3014H443.616V75.4791H447.027V74.3014Z" fill="#6A9619"/>
<path d="M447.027 77.5714H443.616V78.7491H447.027V77.5714Z" fill="#6A9619"/>
<path d="M109.772 192.187H103.79V184.882H109.772V192.187ZM104.755 191.01H108.808V186.06H104.755V191.01Z" fill="#6A9619"/>
<path d="M96.7824 187.677H82.1659V183.437H96.7824V187.677ZM83.1303 186.499H95.8181V184.615H83.1303V186.499Z" fill="#6A9619"/>
<path d="M96.7824 193.718H82.1659V189.479H96.7824V193.718ZM83.1303 192.54H95.8181V190.656H83.1303V192.54Z" fill="#6A9619"/>
<path d="M96.7824 199.764H82.1659V195.524H96.7824V199.764ZM83.1303 198.586H95.8181V196.702H83.1303V198.586Z" fill="#6A9619"/>
<path d="M96.7824 205.805H82.1659V201.565H96.7824V205.805ZM83.1303 204.627H95.8181V202.743H83.1303V204.627Z" fill="#6A9619"/>
<path d="M117.555 192.187H111.573V184.882H117.555V192.187ZM112.537 191.01H116.59V186.06H112.537V191.01Z" fill="#6A9619"/>
<path d="M125.34 192.187H119.358V184.882H125.34V192.187ZM120.323 191.01H124.376V186.06H120.323V191.01Z" fill="#6A9619"/>
<path d="M133.123 192.187H127.141V184.882H133.123V192.187ZM128.105 191.01H132.159V186.06H128.105V191.01Z" fill="#6A9619"/>
<path d="M140.909 192.187H134.926V184.882H140.909V192.187ZM135.891 191.01H139.944V186.06H135.891V191.01Z" fill="#6A9619"/>
<path d="M148.691 192.187H142.709V184.882H148.691V192.187ZM143.673 191.01H147.727V186.06H143.673V191.01Z" fill="#6A9619"/>
<path d="M156.477 192.187H150.494V184.882H156.477V192.187ZM151.459 191.01H155.512V186.06H151.459V191.01Z" fill="#6A9619"/>
<path d="M109.772 202.743H103.79V195.438H109.772V202.743ZM104.755 201.565H108.808V196.615H104.755V201.565Z" fill="#6A9619"/>
<path d="M117.555 202.743H111.573V195.438H117.555V202.743ZM112.537 201.565H116.59V196.615H112.537V201.565Z" fill="#6A9619"/>
<path d="M125.34 202.743H119.358V195.438H125.34V202.743ZM120.323 201.565H124.376V196.615H120.323V201.565Z" fill="#6A9619"/>
<path d="M133.123 202.743H127.141V195.438H133.123V202.743ZM128.105 201.565H132.159V196.615H128.105V201.565Z" fill="#6A9619"/>
<path d="M140.909 202.743H134.926V195.438H140.909V202.743ZM135.891 201.565H139.944V196.615H135.891V201.565Z" fill="#6A9619"/>
<path d="M148.691 202.743H142.709V195.438H148.691V202.743ZM143.673 201.565H147.727V196.615H143.673V201.565Z" fill="#6A9619"/>
<path d="M156.477 202.743H150.494V195.438H156.477V202.743ZM151.459 201.565H155.512V196.615H151.459V201.565Z" fill="#6A9619"/>
<path d="M147.367 157.999H146.402V154.05H147.367V157.999ZM147.367 149.339H146.402V144.629H147.367V149.339ZM147.367 139.918H146.402V135.207H147.367V139.918ZM147.367 130.496H146.402V125.786H147.367V130.496ZM147.367 121.075H146.402V116.364H147.367V121.075ZM147.367 111.653H146.402V106.943H147.367V111.653ZM147.367 102.232H146.402V97.5213H147.367V102.232ZM147.367 92.8106H146.402V88.0999H147.367V92.8106Z" fill="#6A9619"/>
<path d="M126.022 82.9142H116.015V84.0919H126.022V82.9142Z" fill="#6A9619"/>
<path d="M126.022 87.1381H116.015V88.3157H126.022V87.1381Z" fill="#6A9619"/>
<path d="M126.022 91.366H116.015V92.5436H126.022V91.366Z" fill="#6A9619"/>
<path d="M126.022 95.5939H116.015V96.7716H126.022V95.5939Z" fill="#6A9619"/>
<path d="M126.022 99.8177H116.015V100.995H126.022V99.8177Z" fill="#6A9619"/>
<path d="M126.022 104.046H116.015V105.223H126.022V104.046Z" fill="#6A9619"/>
<path d="M126.022 108.274H116.015V109.451H126.022V108.274Z" fill="#6A9619"/>
<path d="M183.517 143.855H169.698V145.033H183.517V143.855Z" fill="#6A9619"/>
<path d="M183.517 149.614H169.698V150.792H183.517V149.614Z" fill="#6A9619"/>
<path d="M183.517 155.377H169.698V156.554H183.517V155.377Z" fill="#6A9619"/>
<path d="M183.517 161.135H169.698V162.313H183.517V161.135Z" fill="#6A9619"/>
<path d="M183.517 166.898H169.698V168.076H183.517V166.898Z" fill="#6A9619"/>
<path d="M183.517 172.661H169.698V173.839H183.517V172.661Z" fill="#6A9619"/>
<path d="M183.517 178.42H169.698V179.598H183.517V178.42Z" fill="#6A9619"/>
<path d="M195.729 143.855H187.163V145.033H195.729V143.855Z" fill="#6A9619"/>
<path d="M195.729 149.614H187.163V150.792H195.729V149.614Z" fill="#6A9619"/>
<path d="M195.729 155.377H187.163V156.554H195.729V155.377Z" fill="#6A9619"/>
<path d="M195.729 161.135H187.163V162.313H195.729V161.135Z" fill="#6A9619"/>
<path d="M195.729 166.898H187.163V168.076H195.729V166.898Z" fill="#6A9619"/>
<path d="M195.729 172.661H187.163V173.839H195.729V172.661Z" fill="#6A9619"/>
<path d="M195.729 178.42H187.163V179.598H195.729V178.42Z" fill="#6A9619"/>
<path d="M126.022 112.497H116.015V113.675H126.022V112.497Z" fill="#6A9619"/>
<path d="M126.022 116.726H116.015V117.903H126.022V116.726Z" fill="#6A9619"/>
<path d="M126.022 120.953H116.015V122.131H126.022V120.953Z" fill="#6A9619"/>
<path d="M126.022 125.177H116.015V126.355H126.022V125.177Z" fill="#6A9619"/>
<path d="M126.022 129.405H116.015V130.583H126.022V129.405Z" fill="#6A9619"/>
<path d="M126.022 133.633H116.015V134.811H126.022V133.633Z" fill="#6A9619"/>
<path d="M126.022 137.857H116.015V139.035H126.022V137.857Z" fill="#6A9619"/>
<path d="M398.105 90.1569H397.14V178.82H398.105V90.1569Z" fill="#6A9619"/>
<path d="M402.592 86.4001H401.628V178.821H402.592V86.4001Z" fill="#6A9619"/>
<path d="M499.883 209.962H463.945V172.151H499.883V209.962ZM464.909 208.785H498.919V173.329H464.909V208.785Z" fill="#6A9619"/>
<path d="M475.726 198.46H473.47C473.717 197.605 473.858 196.69 473.858 195.732C473.858 191.214 470.859 187.547 467.156 187.547H459.814C457.204 187.547 454.944 189.376 453.838 192.038C453.6 191.995 453.359 191.963 453.112 191.963H446.724C444.021 191.963 441.832 194.637 441.832 197.938C441.832 198.115 441.842 198.288 441.854 198.456H440.286C437.817 198.456 435.818 200.898 435.818 203.913C435.818 206.928 437.817 209.37 440.286 209.37H475.723C478.192 209.37 480.191 206.928 480.191 203.913C480.191 200.898 478.192 198.456 475.723 198.456L475.726 198.46Z" fill="white"/>
<path d="M475.726 209.962H440.289C437.56 209.962 435.339 207.25 435.339 203.917C435.339 200.584 437.56 197.871 440.289 197.871H441.353C441.385 194.283 443.783 191.378 446.728 191.378H453.115C453.26 191.378 453.414 191.386 453.575 191.406C454.854 188.654 457.214 186.958 459.817 186.958H467.159C471.12 186.958 474.344 190.892 474.344 195.732C474.344 196.45 474.27 197.165 474.122 197.871H475.729C478.458 197.871 480.68 200.584 480.68 203.917C480.68 207.25 478.458 209.962 475.729 209.962H475.726ZM440.289 199.049C438.09 199.049 436.303 201.232 436.303 203.917C436.303 206.602 438.09 208.785 440.289 208.785H475.726C477.925 208.785 479.712 206.602 479.712 203.917C479.712 201.232 477.925 199.049 475.726 199.049H472.788L473.016 198.264C473.257 197.436 473.379 196.584 473.379 195.732C473.379 191.543 470.589 188.136 467.159 188.136H459.817C457.464 188.136 455.339 189.734 454.272 192.305L454.115 192.686L453.771 192.623C453.523 192.576 453.314 192.556 453.115 192.556H446.728C444.294 192.556 442.317 194.97 442.317 197.942C442.317 198.099 442.327 198.256 442.337 198.409L442.382 199.049H440.289Z" fill="#6A9619"/>
<path d="M495.222 144.574H484.936V172.744H495.222V144.574Z" fill="white"/>
<path d="M495.705 173.329H484.454V143.981H495.705V173.329ZM485.418 172.151H494.74V145.159H485.418V172.151Z" fill="#6A9619"/>
<path d="M481.4 128.066H471.113V172.74H481.4V128.066Z" fill="white"/>
<path d="M481.882 173.329H470.631V127.478H481.882V173.329ZM471.596 172.151H480.918V128.655H471.596V172.151Z" fill="#6A9619"/>
<path d="M477.96 134.155H474.55V135.333H477.96V134.155Z" fill="#6A9619"/>
<path d="M477.96 138.63H474.55V139.808H477.96V138.63Z" fill="#6A9619"/>
<path d="M477.96 143.102H474.55V144.279H477.96V143.102Z" fill="#6A9619"/>
<path d="M477.96 147.577H474.55V148.754H477.96V147.577Z" fill="#6A9619"/>
<path d="M477.96 152.052H474.55V153.229H477.96V152.052Z" fill="#6A9619"/>
<path d="M477.96 156.527H474.55V157.705H477.96V156.527Z" fill="#6A9619"/>
<path d="M477.96 161.002H474.55V162.18H477.96V161.002Z" fill="#6A9619"/>
<path d="M477.96 165.477H474.55V166.655H477.96V165.477Z" fill="#6A9619"/>
<path d="M491.783 148.46H488.372V149.637H491.783V148.46Z" fill="#6A9619"/>
<path d="M491.783 152.931H488.372V154.109H491.783V152.931Z" fill="#6A9619"/>
<path d="M491.783 157.406H488.372V158.584H491.783V157.406Z" fill="#6A9619"/>
<path d="M491.783 161.881H488.372V163.059H491.783V161.881Z" fill="#6A9619"/>
<path d="M491.783 166.357H488.372V167.534H491.783V166.357Z" fill="#6A9619"/>
<path d="M64.6113 141.245H59.394V134.873H64.6113V141.245ZM60.3584 140.067H63.6469V136.051H60.3584V140.067Z" fill="#6A9619"/>
<path d="M64.6113 151.019H59.394V144.648H64.6113V151.019ZM60.3584 149.842H63.6469V145.826H60.3584V149.842Z" fill="#6A9619"/>
<path d="M64.6113 160.794H59.394V154.423H64.6113V160.794ZM60.3584 159.616H63.6469V155.601H60.3584V159.616Z" fill="#6A9619"/>
<path d="M64.6113 170.569H59.394V164.198H64.6113V170.569ZM60.3584 169.391H63.6469V165.375H60.3584V169.391Z" fill="#6A9619"/>
<path d="M64.6113 180.344H59.394V173.972H64.6113V180.344ZM60.3584 179.166H63.6469V175.15H60.3584V179.166Z" fill="#6A9619"/>
<path d="M62.3707 115.842H61.4064V131.011H62.3707V115.842Z" fill="#6A9619"/>
<path d="M280.491 74.9413H274.544V67.679H280.491V74.9413ZM275.508 73.7636H279.526V68.8566H275.508V73.7636Z" fill="#6A9619"/>
<path d="M280.491 88.5082H274.544V81.2458H280.491V88.5082ZM275.508 87.3305H279.526V82.4235H275.508V87.3305Z" fill="#6A9619"/>
<path d="M212.728 204.396C211.04 204.396 209.578 202.955 209.202 200.981C207.697 200.419 206.633 198.7 206.633 196.745C206.633 194.79 207.684 193.09 209.173 192.521C209.504 190.464 210.976 188.96 212.728 188.96C214.48 188.96 215.965 190.476 216.286 192.548C217.756 193.145 218.758 194.817 218.758 196.745C218.758 198.672 217.746 200.364 216.261 200.953C215.891 202.94 214.425 204.396 212.728 204.396ZM212.728 190.142C211.359 190.142 210.221 191.394 210.082 193.055C210.06 193.31 209.909 193.518 209.703 193.573C208.482 193.887 207.598 195.226 207.598 196.749C207.598 198.272 208.488 199.618 209.716 199.929C209.915 199.98 210.066 200.176 210.095 200.423C210.278 202.017 211.41 203.218 212.728 203.218C214.046 203.218 215.187 202.009 215.364 200.408C215.39 200.164 215.537 199.968 215.734 199.913C216.945 199.571 217.794 198.272 217.794 196.749C217.794 195.226 216.952 193.934 215.746 193.589C215.544 193.53 215.396 193.322 215.377 193.074C215.245 191.406 214.107 190.146 212.731 190.146L212.728 190.142Z" fill="#6A9619"/>
<path d="M212.696 208.569C212.429 208.569 212.214 208.306 212.214 207.98V193.985C212.214 193.659 212.429 193.396 212.696 193.396C212.963 193.396 213.178 193.659 213.178 193.985V207.98C213.178 208.306 212.963 208.569 212.696 208.569Z" fill="#6A9619"/>
<path d="M212.696 199.383C211.259 199.383 210.131 198.335 210.131 197V195.206C210.131 194.88 210.346 194.617 210.613 194.617C210.88 194.617 211.095 194.88 211.095 195.206V197C211.095 197.652 211.828 198.205 212.696 198.205C213.564 198.205 214.297 197.656 214.297 197V195.206C214.297 194.88 214.512 194.617 214.779 194.617C215.046 194.617 215.261 194.88 215.261 195.206V197C215.261 198.335 214.133 199.383 212.696 199.383Z" fill="#6A9619"/>
<path d="M256.989 184.195H253.906C253.64 184.195 253.424 183.932 253.424 183.606V159.715C253.424 159.389 253.64 159.126 253.906 159.126H256.989C257.256 159.126 257.471 159.389 257.471 159.715V183.606C257.471 183.932 257.256 184.195 256.989 184.195ZM254.389 183.017H256.507V160.303H254.389V183.017Z" fill="#6A9619"/>
<path d="M263 184.042H259.918C259.651 184.042 259.435 183.779 259.435 183.453V159.561C259.435 159.236 259.651 158.973 259.918 158.973H263C263.267 158.973 263.482 159.236 263.482 159.561V183.453C263.482 183.779 263.267 184.042 263 184.042ZM260.4 182.864H262.518V160.15H260.4V182.864Z" fill="#6A9619"/>
<path d="M269.015 183.888H265.932C265.665 183.888 265.45 183.625 265.45 183.3V159.408C265.45 159.083 265.665 158.82 265.932 158.82H269.015C269.281 158.82 269.497 159.083 269.497 159.408V183.3C269.497 183.625 269.281 183.888 269.015 183.888ZM266.414 182.711H268.532V159.997H266.414V182.711Z" fill="#6A9619"/>
<path d="M270.204 154.678C269.937 154.678 269.722 154.415 269.722 154.089V103.021C269.722 102.695 269.937 102.432 270.204 102.432C270.471 102.432 270.686 102.695 270.686 103.021V154.089C270.686 154.415 270.471 154.678 270.204 154.678Z" fill="#6A9619"/>
<path d="M278.504 209.962C278.237 209.962 278.022 209.699 278.022 209.373V103.021C278.022 102.695 278.237 102.432 278.504 102.432C278.771 102.432 278.986 102.695 278.986 103.021V209.373C278.986 209.699 278.771 209.962 278.504 209.962Z" fill="#6A9619"/>
<path d="M286.18 209.962C285.914 209.962 285.698 209.699 285.698 209.373V103.021C285.698 102.695 285.914 102.432 286.18 102.432C286.447 102.432 286.663 102.695 286.663 103.021V209.373C286.663 209.699 286.447 209.962 286.18 209.962Z" fill="#6A9619"/>
<path d="M311.186 165.717H297.579V166.894H311.186V165.717Z" fill="#6A9619"/>
<path d="M311.186 170.918H297.579V172.096H311.186V170.918Z" fill="#6A9619"/>
<path d="M214.776 84.2882H205.261V85.4659H214.776V84.2882Z" fill="#6A9619"/>
<path d="M214.776 90.1726H205.261V91.3503H214.776V90.1726Z" fill="#6A9619"/>
<path d="M214.776 96.0531H205.261V97.2308H214.776V96.0531Z" fill="#6A9619"/>
<path d="M214.776 101.938H205.261V103.115H214.776V101.938Z" fill="#6A9619"/>
<path d="M214.776 107.822H205.261V109H214.776V107.822Z" fill="#6A9619"/>
<path d="M214.776 113.703H205.261V114.88H214.776V113.703Z" fill="#6A9619"/>
<path d="M214.776 119.587H205.261V120.765H214.776V119.587Z" fill="#6A9619"/>
<path d="M214.776 125.471H205.261V126.649H214.776V125.471Z" fill="#6A9619"/>
<path d="M214.776 131.352H205.261V132.53H214.776V131.352Z" fill="#6A9619"/>
<path d="M214.776 137.237H205.261V138.414H214.776V137.237Z" fill="#6A9619"/>
<path d="M214.776 143.121H205.261V144.299H214.776V143.121Z" fill="#6A9619"/>
<path d="M214.776 149.006H205.261V150.183H214.776V149.006Z" fill="#6A9619"/>
<path d="M214.776 154.886H205.261V156.064H214.776V154.886Z" fill="#6A9619"/>
<path d="M214.776 160.771H205.261V161.948H214.776V160.771Z" fill="#6A9619"/>
<path d="M214.776 166.655H205.261V167.833H214.776V166.655Z" fill="#6A9619"/>
<path d="M214.776 172.536H205.261V173.713H214.776V172.536Z" fill="#6A9619"/>
<path d="M214.776 178.42H205.261V179.598H214.776V178.42Z" fill="#6A9619"/>
<path d="M214.776 184.304H205.261V185.482H214.776V184.304Z" fill="#6A9619"/>
<path d="M311.186 176.12H297.579V177.297H311.186V176.12Z" fill="#6A9619"/>
<path d="M311.186 181.317H297.579V182.495H311.186V181.317Z" fill="#6A9619"/>
<path d="M311.186 186.519H297.579V187.696H311.186V186.519Z" fill="#6A9619"/>
<path d="M311.186 191.72H297.579V192.898H311.186V191.72Z" fill="#6A9619"/>
<path d="M331.927 185.482H321.958C321.691 185.482 321.476 185.219 321.476 184.894V180.933C321.476 180.607 321.691 180.344 321.958 180.344H331.927C332.193 180.344 332.409 180.607 332.409 180.933V184.894C332.409 185.219 332.193 185.482 331.927 185.482ZM322.44 184.305H331.444V181.521H322.44V184.305Z" fill="#6A9619"/>
<path d="M349.893 203.171H336.051C335.784 203.171 335.569 202.908 335.569 202.582V198.621C335.569 198.295 335.784 198.032 336.051 198.032H349.893C350.16 198.032 350.375 198.295 350.375 198.621V202.582C350.375 202.908 350.16 203.171 349.893 203.171ZM336.53 201.993H349.407V199.21H336.53V201.993Z" fill="#6A9619"/>
<path d="M331.853 194.684H321.958C321.691 194.684 321.476 194.421 321.476 194.095V190.566C321.476 190.24 321.691 189.977 321.958 189.977H331.853C332.119 189.977 332.335 190.24 332.335 190.566V194.095C332.335 194.421 332.119 194.684 331.853 194.684ZM322.44 193.506H331.37V191.154H322.44V193.506Z" fill="#6A9619"/>
<path d="M163.693 166.647H159.836V165.469H163.693V166.647ZM155.978 166.647H152.121V165.469H155.978V166.647ZM148.263 166.647H144.406V165.469H148.263V166.647ZM140.549 166.647H136.691V165.469H140.549V166.647ZM132.834 166.647H128.976V165.469H132.834V166.647ZM125.119 166.647H121.261V165.469H125.119V166.647Z" fill="#6A9619"/>
<path d="M206.697 77.6735V57.3389H227.386L206.697 77.6735ZM207.662 58.5165V75.2121L224.651 58.5165H207.662Z" fill="#6A9619"/>
<path d="M220.128 209.962H205.264C204.997 209.962 204.782 209.699 204.782 209.373V78.329C204.782 78.1523 204.849 77.9835 204.962 77.8697L228.81 54.4299C228.955 54.2886 229.154 54.2611 229.321 54.3593C229.489 54.4574 229.595 54.6654 229.595 54.8892V95.0245C229.595 95.1462 229.563 95.264 229.508 95.3621L220.61 110.845V209.373C220.61 209.699 220.395 209.962 220.128 209.962ZM205.743 208.785H219.642V110.66C219.642 110.539 219.675 110.421 219.729 110.323L228.627 94.84V56.1218L226.319 58.3908L205.743 78.6116V208.785Z" fill="#6A9619"/>
<path d="M224.664 90.8517H220.128C219.861 90.8517 219.646 90.5887 219.646 90.2629V84.7238C219.646 84.398 219.861 84.135 220.128 84.135H224.664C224.93 84.135 225.146 84.398 225.146 84.7238V90.2629C225.146 90.5887 224.93 90.8517 224.664 90.8517ZM220.61 89.674H224.181V85.3127H220.61V89.674Z" fill="#6A9619"/>
<path d="M224.664 82.5725H220.128C219.861 82.5725 219.646 82.3095 219.646 81.9837V76.4447C219.646 76.1189 219.861 75.8558 220.128 75.8558H224.664C224.93 75.8558 225.146 76.1189 225.146 76.4447V81.9837C225.146 82.3095 224.93 82.5725 224.664 82.5725ZM220.61 81.3949H224.181V77.0335H220.61V81.3949Z" fill="#6A9619"/>
<path d="M224.664 74.2935H220.128C219.861 74.2935 219.646 74.0305 219.646 73.7046V68.1656C219.646 67.8398 219.861 67.5768 220.128 67.5768H224.664C224.93 67.5768 225.146 67.8398 225.146 68.1656V73.7046C225.146 74.0305 224.93 74.2935 224.664 74.2935ZM220.61 73.1158H224.181V68.7545H220.61V73.1158Z" fill="#6A9619"/>
<path d="M187.751 100.736H183.215C182.948 100.736 182.733 100.473 182.733 100.148V94.6085C182.733 94.2827 182.948 94.0197 183.215 94.0197H187.751C188.018 94.0197 188.233 94.2827 188.233 94.6085V100.148C188.233 100.473 188.018 100.736 187.751 100.736ZM183.697 99.5587H187.269V95.1973H183.697V99.5587Z" fill="#6A9619"/>
<path d="M187.751 109.962H183.215C182.948 109.962 182.733 109.699 182.733 109.373V103.834C182.733 103.508 182.948 103.245 183.215 103.245H187.751C188.018 103.245 188.233 103.508 188.233 103.834V109.373C188.233 109.699 188.018 109.962 187.751 109.962ZM183.697 108.784H187.269V104.423H183.697V108.784Z" fill="#6A9619"/>
<path d="M114.694 158.835H110.158C109.891 158.835 109.676 158.572 109.676 158.247V152.707C109.676 152.382 109.891 152.119 110.158 152.119H114.694C114.961 152.119 115.176 152.382 115.176 152.707V158.247C115.176 158.572 114.961 158.835 114.694 158.835ZM110.637 157.658H114.209V153.296H110.637V157.658Z" fill="#6A9619"/>
<path d="M187.751 119.187H183.215C182.948 119.187 182.733 118.924 182.733 118.598V113.059C182.733 112.733 182.948 112.47 183.215 112.47H187.751C188.018 112.47 188.233 112.733 188.233 113.059V118.598C188.233 118.924 188.018 119.187 187.751 119.187ZM183.697 118.009H187.269V113.648H183.697V118.009Z" fill="#6A9619"/>
<path d="M187.751 128.412H183.215C182.948 128.412 182.733 128.149 182.733 127.823V122.284C182.733 121.958 182.948 121.695 183.215 121.695H187.751C188.018 121.695 188.233 121.958 188.233 122.284V127.823C188.233 128.149 188.018 128.412 187.751 128.412ZM183.697 127.234H187.269V122.873H183.697V127.234Z" fill="#6A9619"/>
<path d="M75.605 190.456H71.7475V189.278H75.605V190.456ZM67.8901 190.456H64.0326V189.278H67.8901V190.456ZM60.1752 190.456H56.3177V189.278H60.1752V190.456ZM52.4602 190.456H48.6028V189.278H52.4602V190.456ZM44.7453 190.456H40.8879V189.278H44.7453V190.456ZM37.0304 190.456H33.173V189.278H37.0304V190.456ZM29.3155 190.456H25.458V189.278H29.3155V190.456Z" fill="#6A9619"/>
<path d="M75.605 195.241H71.7475V194.064H75.605V195.241ZM67.8901 195.241H64.0326V194.064H67.8901V195.241ZM60.1752 195.241H56.3177V194.064H60.1752V195.241ZM52.4602 195.241H48.6028V194.064H52.4602V195.241ZM44.7453 195.241H40.8879V194.064H44.7453V195.241ZM37.0304 195.241H33.173V194.064H37.0304V195.241ZM29.3155 195.241H25.458V194.064H29.3155V195.241Z" fill="#6A9619"/>
<path d="M75.605 200.027H71.7475V198.849H75.605V200.027ZM67.8901 200.027H64.0326V198.849H67.8901V200.027ZM60.1752 200.027H56.3177V198.849H60.1752V200.027ZM52.4602 200.027H48.6028V198.849H52.4602V200.027ZM44.7453 200.027H40.8879V198.849H44.7453V200.027ZM37.0304 200.027H33.173V198.849H37.0304V200.027ZM29.3155 200.027H25.458V198.849H29.3155V200.027Z" fill="#6A9619"/>
<path d="M75.605 204.812H71.7475V203.634H75.605V204.812ZM67.8901 204.812H64.0326V203.634H67.8901V204.812ZM60.1752 204.812H56.3177V203.634H60.1752V204.812ZM52.4602 204.812H48.6028V203.634H52.4602V204.812ZM44.7453 204.812H40.8879V203.634H44.7453V204.812ZM37.0304 204.812H33.173V203.634H37.0304V204.812ZM29.3155 204.812H25.458V203.634H29.3155V204.812Z" fill="#6A9619"/>
<path d="M499.401 177.203H484.592V178.381H499.401V177.203Z" fill="#6A9619"/>
<path d="M499.401 182.66H484.592V183.837H499.401V182.66Z" fill="#6A9619"/>
<path d="M499.401 188.116H484.592V189.294H499.401V188.116Z" fill="#6A9619"/>
<path d="M499.401 193.573H484.592V194.75H499.401V193.573Z" fill="#6A9619"/>
<path d="M499.401 199.03H484.592V200.207H499.401V199.03Z" fill="#6A9619"/>
<path d="M499.401 204.486H484.592V205.664H499.401V204.486Z" fill="#6A9619"/>
<path d="M55.5044 184.972H41.0647V168.437H55.5044V184.972ZM42.029 183.794H54.5401V169.615H42.029V183.794Z" fill="#6A9619"/>
<path d="M79.4656 184.972H68.2694V155.377H79.4656V184.972ZM69.2305 183.794H78.4981V156.554H69.2305V183.794Z" fill="#6A9619"/>
<path d="M38.4513 201.801H36.889C37.0594 201.208 37.159 200.576 37.159 199.909C37.159 196.776 35.0792 194.236 32.514 194.236H27.4254C25.6156 194.236 24.0501 195.504 23.285 197.349C23.1211 197.318 22.9539 197.298 22.7803 197.298H18.3539C16.483 197.298 14.9626 199.151 14.9626 201.44C14.9626 201.561 14.969 201.679 14.9786 201.801H13.8921C12.182 201.801 10.7965 203.493 10.7965 205.581C10.7965 207.67 12.182 209.362 13.8921 209.362H38.448C40.1582 209.362 41.5437 207.67 41.5437 205.581C41.5437 203.493 40.1582 201.801 38.448 201.801H38.4513Z" fill="white"/>
<path d="M38.4513 209.95H13.8953C11.9216 209.95 10.3175 207.992 10.3175 205.581C10.3175 203.171 11.9216 201.212 13.8953 201.212H14.49C14.5897 198.711 16.287 196.713 18.3571 196.713H22.7836C22.8607 196.713 22.9379 196.713 23.0214 196.725C23.944 194.821 25.6027 193.651 27.4286 193.651H32.5172C35.3428 193.651 37.6444 196.458 37.6444 199.913C37.6444 200.348 37.6058 200.784 37.5287 201.216H38.4545C40.4282 201.216 42.0323 203.175 42.0323 205.585C42.0323 207.995 40.4282 209.954 38.4545 209.954L38.4513 209.95ZM13.8953 202.39C12.4552 202.39 11.2819 203.823 11.2819 205.581C11.2819 207.34 12.4552 208.773 13.8953 208.773H38.4513C39.8914 208.773 41.0647 207.34 41.0647 205.581C41.0647 203.823 39.8914 202.39 38.4513 202.39H36.2043L36.4325 201.605C36.5932 201.051 36.6736 200.482 36.6736 199.913C36.6736 197.11 34.806 194.829 32.5108 194.829H27.4221C25.847 194.829 24.4262 195.897 23.7126 197.62L23.555 198.001L23.2111 197.938C23.0471 197.907 22.9089 197.895 22.7803 197.895H18.3539C16.7498 197.895 15.4447 199.489 15.4447 201.448C15.4447 201.554 15.4512 201.656 15.4576 201.758L15.5026 202.398H13.8921L13.8953 202.39Z" fill="#6A9619"/>
<path d="M208.215 38.2329H180.64C177.905 38.2329 175.68 35.5164 175.68 32.1757C175.68 28.835 177.905 26.1185 180.64 26.1185H184.032C183.601 25.0233 183.376 23.826 183.376 22.6051C183.376 18.126 186.359 14.4791 190.03 14.4791C192.769 14.4791 195.234 16.5715 196.221 19.6452C197.112 19.0917 198.095 18.8051 199.098 18.8051C202.486 18.8051 205.267 22.0438 205.47 26.1185H208.215C210.95 26.1185 213.175 28.835 213.175 32.1757C213.175 35.5164 210.95 38.2329 208.215 38.2329ZM180.64 27.2923C178.435 27.2923 176.645 29.4828 176.645 32.1718C176.645 34.8608 178.438 37.0513 180.64 37.0513H208.215C210.42 37.0513 212.21 34.8608 212.21 32.1718C212.21 29.4828 210.417 27.2923 208.215 27.2923H204.994C204.865 27.2923 204.74 27.2295 204.65 27.1156C204.56 27.0018 204.508 26.8526 204.512 26.6917C204.512 26.6642 204.512 26.6367 204.515 26.6092C204.515 22.9466 202.085 19.975 199.095 19.975C198.076 19.975 197.076 20.3283 196.208 20.9995C196.08 21.0977 195.922 21.1173 195.781 21.0506C195.639 20.9838 195.53 20.8425 195.488 20.6619C194.788 17.7099 192.544 15.649 190.027 15.649C186.889 15.649 184.337 18.7659 184.337 22.5973C184.337 23.9398 184.655 25.247 185.256 26.3776C185.353 26.5582 185.359 26.7898 185.276 26.9782C185.192 27.1667 185.028 27.2884 184.851 27.2884H180.637L180.64 27.2923Z" fill="#6A9619"/>
<path d="M98.4765 54.0571H70.9021C68.1665 54.0571 65.9421 51.3406 65.9421 48C65.9421 44.6593 68.1665 41.9427 70.9021 41.9427H74.2935C73.8627 40.8475 73.6377 39.6502 73.6377 38.4293C73.6377 33.9502 76.6208 30.3033 80.2918 30.3033C83.0306 30.3033 85.4962 32.3957 86.483 35.4694C87.3735 34.9159 88.3571 34.6294 89.3601 34.6294C92.7482 34.6294 95.5288 37.868 95.7313 41.9427H98.4765C101.212 41.9427 103.437 44.6593 103.437 48C103.437 51.3406 101.212 54.0571 98.4765 54.0571ZM70.9021 43.1204C68.6969 43.1204 66.9064 45.3109 66.9064 48C66.9064 50.689 68.7002 52.8795 70.9021 52.8795H98.4765C100.682 52.8795 102.472 50.689 102.472 48C102.472 45.3109 100.678 43.1204 98.4765 43.1204H95.2555C95.127 43.1204 95.0016 43.0576 94.9116 42.9438C94.8216 42.8299 94.7701 42.6808 94.7734 42.5198C94.7734 42.4923 94.7733 42.4649 94.7766 42.4374C94.7766 38.7748 92.3464 35.807 89.3568 35.807C88.3378 35.807 87.3381 36.1603 86.4702 36.8316C86.3416 36.9298 86.1841 36.9494 86.0426 36.8827C85.9012 36.8159 85.7919 36.6746 85.7501 36.494C85.0493 33.542 82.8056 31.481 80.2886 31.481C77.1512 31.481 74.5989 34.598 74.5989 38.4293C74.5989 39.7719 74.9171 41.0791 75.5182 42.2097C75.6146 42.3903 75.6211 42.6219 75.5375 42.8103C75.4539 42.9987 75.29 43.1204 75.1132 43.1204H70.8989H70.9021Z" fill="#6A9619"/>
<path d="M414.817 36.8552H384.243C381.238 36.8552 378.795 33.8717 378.795 30.2013C378.795 26.5308 381.238 23.5474 384.243 23.5474H388.088C387.59 22.3187 387.329 20.9682 387.329 19.5864C387.329 14.6559 390.615 10.6439 394.652 10.6439C397.687 10.6439 400.419 12.9757 401.489 16.3989C402.483 15.7708 403.585 15.441 404.704 15.441C408.449 15.441 411.519 19.0369 411.721 23.5513H414.817C417.822 23.5513 420.266 26.5347 420.266 30.2052C420.266 33.8756 417.822 36.8591 414.817 36.8591V36.8552ZM384.247 24.725C381.775 24.725 379.762 27.1825 379.762 30.2013C379.762 33.22 381.775 35.6775 384.247 35.6775H414.82C417.292 35.6775 419.304 33.22 419.304 30.2013C419.304 27.1825 417.292 24.725 414.82 24.725H411.249C411.12 24.725 410.998 24.6622 410.905 24.5523C410.815 24.4424 410.763 24.2893 410.767 24.1323C410.767 24.1009 410.767 24.0695 410.77 24.0381C410.77 19.9397 408.05 16.6187 404.71 16.6187C403.569 16.6187 402.454 17.0152 401.483 17.765C401.354 17.8631 401.197 17.8827 401.055 17.816C400.914 17.7493 400.805 17.6079 400.763 17.4274C399.982 14.1259 397.471 11.8216 394.658 11.8216C391.151 11.8216 388.3 15.3075 388.3 19.5864C388.3 21.0899 388.657 22.5503 389.329 23.8143C389.425 23.9949 389.432 24.2265 389.348 24.4149C389.264 24.6034 389.1 24.7211 388.924 24.7211H384.25L384.247 24.725Z" fill="#6A9619"/>
<path d="M287.322 29.5692H253.087C249.753 29.5692 247.043 26.2599 247.043 22.189C247.043 18.1182 249.753 14.8089 253.087 14.8089H257.484C256.902 13.4153 256.597 11.8765 256.597 10.3023C256.597 4.81825 260.252 0.358765 264.739 0.358765C268.137 0.358765 271.191 2.98499 272.364 6.83208C273.486 6.10977 274.73 5.72899 275.997 5.72899C280.179 5.72899 283.602 9.76058 283.798 14.8089H287.318C290.652 14.8089 293.362 18.1182 293.362 22.189C293.362 26.2599 290.652 29.5692 287.318 29.5692H287.322ZM253.087 15.9866C250.287 15.9866 248.008 18.7698 248.008 22.189C248.008 25.6082 250.287 28.3915 253.087 28.3915H287.322C290.121 28.3915 292.401 25.6082 292.401 22.189C292.401 18.7698 290.121 15.9866 287.322 15.9866H283.323C283.194 15.9866 283.069 15.9238 282.979 15.8099C282.889 15.6961 282.837 15.543 282.84 15.386C282.84 15.3546 282.84 15.3232 282.844 15.2917C282.844 10.6556 279.774 6.90667 276 6.90667C274.711 6.90667 273.451 7.35418 272.355 8.20211C272.226 8.30025 272.069 8.31988 271.927 8.25315C271.786 8.18641 271.676 8.04509 271.635 7.86451C270.751 4.13912 267.919 1.53644 264.743 1.53644C260.782 1.53644 257.564 5.4699 257.564 10.3023C257.564 11.9982 257.966 13.6469 258.728 15.0758C258.825 15.2564 258.831 15.488 258.747 15.6765C258.664 15.8649 258.5 15.9866 258.323 15.9866H253.09H253.087Z" fill="#6A9619"/>
<path d="M166.464 49.6643C166.381 49.6643 166.297 49.6368 166.223 49.5858C166.194 49.5662 163.327 47.5524 160.745 47.5524C160.479 47.5524 160.263 47.2893 160.263 46.9635C160.263 46.6377 160.479 46.3747 160.745 46.3747C162.893 46.3747 165.12 47.572 166.143 48.1961C166.483 46.8418 167.525 44.2627 170.505 44.2627C170.772 44.2627 170.987 44.5257 170.987 44.8515C170.987 45.1774 170.772 45.4404 170.505 45.4404C167.355 45.4404 166.962 48.993 166.946 49.1461C166.927 49.3424 166.827 49.5152 166.683 49.6015C166.615 49.6447 166.541 49.6643 166.467 49.6643H166.464Z" fill="#6A9619"/>
<path d="M247.728 67.0351C247.644 67.0351 247.561 67.0076 247.487 66.9565C247.458 66.9369 244.591 64.9231 242.009 64.9231C241.742 64.9231 241.527 64.6601 241.527 64.3342C241.527 64.0084 241.742 63.7454 242.009 63.7454C244.157 63.7454 246.387 64.9427 247.406 65.5669C247.747 64.2125 248.789 61.6334 251.769 61.6334C252.035 61.6334 252.251 61.8964 252.251 62.2223C252.251 62.5481 252.035 62.8111 251.769 62.8111C248.618 62.8111 248.226 66.3638 248.21 66.5169C248.191 66.7132 248.091 66.8859 247.947 66.9722C247.879 67.0154 247.805 67.0351 247.731 67.0351H247.728Z" fill="#6A9619"/>
<path d="M64.9713 96.1669C64.8877 96.1669 64.8041 96.1394 64.7302 96.0884C64.7013 96.0687 61.8339 94.0549 59.2526 94.0549C58.9858 94.0549 58.7704 93.7919 58.7704 93.4661C58.7704 93.1402 58.9858 92.8772 59.2526 92.8772C61.3999 92.8772 63.6276 94.0745 64.6498 94.6987C64.9906 93.3444 66.0321 90.7653 69.012 90.7653C69.2788 90.7653 69.4941 91.0283 69.4941 91.3541C69.4941 91.6799 69.2788 91.9429 69.012 91.9429C65.8424 91.9429 65.4695 95.4956 65.4567 95.6448C65.4374 95.8411 65.3377 96.0138 65.1931 96.1041C65.1256 96.1473 65.0516 96.1669 64.9777 96.1669H64.9713Z" fill="#6A9619"/>
<path d="M355.868 35.8776C355.785 35.8776 355.701 35.8501 355.627 35.7991C355.598 35.7794 352.731 33.7656 350.15 33.7656C349.883 33.7656 349.668 33.5026 349.668 33.1768C349.668 32.8509 349.883 32.5879 350.15 32.5879C352.297 32.5879 354.528 33.7852 355.547 34.4094C355.888 33.0551 356.929 30.476 359.906 30.476C360.173 30.476 360.388 30.739 360.388 31.0648C360.388 31.3906 360.173 31.6536 359.906 31.6536C356.756 31.6536 356.364 35.2063 356.347 35.3594C356.328 35.5557 356.229 35.7284 356.084 35.8148C356.016 35.8579 355.942 35.8776 355.868 35.8776Z" fill="#6A9619"/>
<path d="M252.341 77.6342C252.257 77.6342 252.174 77.6067 252.1 77.5557C252.071 77.536 249.203 75.5222 246.622 75.5222C246.355 75.5222 246.14 75.2592 246.14 74.9334C246.14 74.6075 246.355 74.3445 246.622 74.3445C248.769 74.3445 250.997 75.5418 252.019 76.166C252.36 74.8117 253.402 72.2325 256.378 72.2325C256.645 72.2325 256.86 72.4956 256.86 72.8214C256.86 73.1472 256.645 73.4102 256.378 73.4102C253.228 73.4102 252.836 76.9629 252.823 77.116C252.804 77.3123 252.704 77.485 252.559 77.5714C252.492 77.6145 252.418 77.6342 252.344 77.6342H252.341Z" fill="#6A9619"/>
<path d="M425.701 60.02C425.618 60.02 425.534 59.9926 425.46 59.9415C425.431 59.9219 422.564 57.9081 419.983 57.9081C419.716 57.9081 419.5 57.645 419.5 57.3192C419.5 56.9934 419.716 56.7304 419.983 56.7304C422.13 56.7304 424.361 57.9277 425.38 58.5519C425.721 57.1975 426.762 54.6184 429.739 54.6184C430.006 54.6184 430.221 54.8814 430.221 55.2072C430.221 55.5331 430.006 55.7961 429.739 55.7961C426.569 55.7961 426.196 59.3488 426.184 59.4979C426.164 59.6942 426.065 59.8669 425.92 59.9572C425.852 60.0004 425.779 60.02 425.705 60.02H425.701Z" fill="#6A9619"/>
<path d="M390.226 72.2915C390.142 72.2915 390.058 72.264 389.985 72.213C389.956 72.1934 387.088 70.1795 384.507 70.1795C384.24 70.1795 384.025 69.9165 384.025 69.5907C384.025 69.2649 384.24 69.0019 384.507 69.0019C386.654 69.0019 388.885 70.1992 389.904 70.8233C390.245 69.469 391.286 66.8899 394.263 66.8899C394.53 66.8899 394.745 67.1529 394.745 67.4787C394.745 67.8046 394.53 68.0676 394.263 68.0676C391.094 68.0676 390.721 71.6202 390.708 71.7694C390.689 71.9657 390.589 72.1384 390.444 72.2287C390.377 72.2719 390.303 72.2915 390.229 72.2915H390.226Z" fill="#6A9619"/>
</g>
<defs>
<clipPath id="clip0_355_34232">
<rect width="500" height="210" fill="white" transform="translate(0.182068 0.358765)"/>
</clipPath>
</defs>
</svg>
