<svg width="1440" height="429" viewBox="0 0 1440 429" fill="none" xmlns="http://www.w3.org/2000/svg">
<g opacity="0.3">
<path d="M1439.35 238.86C1439.11 238.607 1414.09 213.684 1362.37 184.59C1314.62 157.745 1233.71 121.759 1119.36 102.811C993.632 81.9729 893.661 105.097 796.998 127.47C724.168 144.323 648.852 161.739 564.498 159.231C422.062 154.984 308.551 120.439 225.658 95.2009C195.088 85.8988 168.676 77.8584 146.68 73.1403C69.4665 56.5867 -15.4699 67.1478 -16.3234 67.2529L-16.5535 66.2588C-15.7 66.1537 69.4714 55.5632 146.938 72.1692C169.005 76.9037 195.429 84.9452 226.035 94.2605C308.844 119.471 422.26 153.987 564.489 158.226C648.66 160.729 723.876 143.334 796.619 126.503C893.431 104.103 993.515 80.9486 1119.55 101.835C1234.13 120.823 1315.23 156.884 1363.08 183.799C1414.94 212.976 1440.04 237.997 1440.29 238.24L1439.35 238.86Z" fill="url(#paint0_linear_355_34781)"/>
<path d="M1440.53 259.996C1436.1 255.99 1329.75 161.383 1118 127.548C1083.97 122.216 1049.85 119.888 1016.58 120.617C944.252 122.215 876.84 135.492 811.657 148.324C732.49 163.913 650.622 180.037 562.207 174.057C533.482 172.106 503.942 168.437 471.909 162.81C387.638 148.031 313.245 125.593 253.485 107.573C212.922 95.3384 177.888 84.7777 148.614 79.074C76.1759 64.9611 -5.54428 73.3272 -14.2544 75.6683L-14.6719 74.7177C-5.91142 72.3611 76.1687 63.9365 148.847 78.1008C178.193 83.8209 213.263 94.3947 253.861 106.643C313.597 124.661 387.931 147.073 472.117 161.845C504.103 167.457 533.593 171.122 562.258 173.067C650.477 179.04 728.611 163.65 811.326 147.361C876.584 134.516 944.058 121.224 1016.49 119.626C1049.85 118.884 1084.06 121.23 1118.18 126.57C1330.35 160.472 1436.98 255.325 1441.41 259.351L1440.52 260.005L1440.53 259.996Z" fill="url(#paint1_linear_355_34781)"/>
<path d="M1441.68 281.1C1440.63 280.143 1326.64 183.886 1116.64 152.264C1082.62 147.144 1048.48 145.226 1015.16 146.583C952.232 149.134 890.715 159.379 831.236 169.282C747.008 183.309 659.998 197.803 569.755 189.814C566.478 189.523 563.203 189.203 559.906 188.851C532.333 185.908 503.344 180.862 471.288 173.416C405.571 158.152 345.232 139.619 292.005 123.261C237.348 106.466 190.159 91.9678 150.527 84.9656C76.3721 71.8652 -1.25267 81.0959 -12.2939 84.0638L-12.7114 83.1133C-1.61981 80.1297 76.3528 70.8396 150.736 83.9902C190.451 91.0099 237.688 105.522 292.381 122.331C345.585 138.676 405.899 157.207 471.557 172.456C503.553 179.887 532.481 184.928 560.005 187.866C653.57 197.866 743.735 182.829 830.93 168.311C890.459 158.402 952.001 148.149 1015.03 145.587C1048.45 144.229 1082.68 146.146 1116.79 151.284C1327.18 182.97 1441.48 279.486 1442.54 280.443L1441.65 281.097L1441.68 281.1Z" fill="url(#paint2_linear_355_34781)"/>
<path d="M1442.85 302.205C1438.86 298.589 1406.56 274.476 1349.28 247.199C1298.94 223.217 1217.5 191.571 1115.3 176.992C1080.88 172.077 1046.71 170.589 1013.75 172.56C961.738 175.665 908.724 183.149 857.457 190.387C759.632 204.194 658.487 218.47 557.64 203.669C530.091 199.624 502.468 193.384 470.691 184.035C427.515 171.328 386.608 158.009 347.045 145.12C272.092 120.715 207.366 99.6351 152.487 90.8815C83.3361 79.8505 8.02375 87.5591 -10.2988 92.4825L-10.7163 91.532C8.30814 86.4197 82.3388 78.678 152.671 89.904C207.659 98.6772 272.445 119.772 347.457 144.203C387.008 157.081 427.915 170.4 471.067 183.105C502.772 192.437 530.335 198.662 557.812 202.691C658.453 217.473 759.499 203.208 857.213 189.411C908.505 182.166 961.555 174.685 1013.62 171.565C1046.67 169.591 1080.94 171.089 1115.46 176.012C1217.84 190.618 1299.42 222.326 1349.86 246.347C1407.27 273.697 1439.72 297.922 1443.72 301.56L1442.83 302.214L1442.85 302.205Z" fill="url(#paint3_linear_355_34781)"/>
<path d="M1444 323.309C1438.06 317.923 1402.11 293.86 1344.88 268.103C1293.79 245.107 1212.24 214.918 1113.94 201.699C1078.98 196.997 1044.79 195.928 1012.33 198.516C973.448 201.619 934.352 206.4 892.968 211.46C781.282 225.125 665.799 239.246 555.352 218.455C528.071 213.319 500.181 205.53 470.084 194.623C455.941 189.506 441.911 184.368 428.009 179.293C327.691 142.623 232.931 107.992 154.424 96.7754C86.3937 87.0483 14.8591 94.6496 -8.31392 100.88L-8.73139 99.9298C19.2539 92.4084 91.58 86.7846 154.585 95.7858C233.236 107.035 328.068 141.683 428.469 178.38C442.371 183.456 456.401 188.593 470.532 193.709C500.559 204.579 528.376 212.363 555.573 217.481C665.804 238.222 781.176 224.111 892.75 210.467C934.147 205.398 973.256 200.618 1012.18 197.519C1044.73 194.919 1079.03 195.988 1114.09 200.708C1212.57 213.954 1294.25 244.184 1345.43 267.228C1402.8 293.047 1438.89 317.224 1444.87 322.643L1443.98 323.297L1444 323.309Z" fill="url(#paint4_linear_355_34781)"/>
<path d="M1445.15 344.413C1437.51 337.482 1397.75 313.372 1340.49 289.047C1288.68 267.042 1207.09 238.316 1112.6 226.417C1076.96 221.937 1042.77 221.278 1010.93 224.483C988.857 226.706 966.464 229.241 942.749 231.92C818.339 245.994 677.332 261.951 553.075 233.262C525.308 226.848 497.968 217.682 469.475 205.231C364.316 159.258 253.609 115.013 156.373 102.68C95.4201 94.955 27.0566 100.317 -6.31785 109.289L-6.73531 108.339C26.765 99.3277 95.3756 93.9371 156.522 101.689C253.952 114.039 364.778 158.325 470.031 204.346C498.428 216.769 525.697 225.909 553.368 232.294C677.387 260.922 818.258 244.983 942.555 230.929C966.27 228.25 988.676 225.716 1010.76 223.485C1042.7 220.268 1077.02 220.917 1112.76 225.427C1207.42 237.351 1289.15 266.12 1341.04 288.162C1398.45 312.54 1438.37 336.774 1446.07 343.751L1445.18 344.405L1445.15 344.413Z" fill="url(#paint5_linear_355_34781)"/>
<path d="M1446.32 365.518C1438.49 358.42 1398.13 334.858 1336.09 310.031C1283.65 289.034 1202.06 261.773 1111.25 251.154C1074.84 246.897 1040.62 246.658 1009.53 250.471C915.212 262.019 784.218 278.05 662.049 267.234C623.616 263.832 586.066 257.777 550.796 248.079C522.704 240.361 495.135 229.508 468.878 215.849C350.893 154.445 246.412 118.361 158.32 108.605C95.3062 101.631 31.232 108.156 -4.33568 117.717L-4.75314 116.766C30.9403 107.166 95.2487 100.622 158.432 107.611C246.707 117.383 351.355 153.512 469.491 215C495.666 228.621 523.129 239.435 551.138 247.125C698.226 287.543 885.434 264.633 1009.3 249.467C1040.5 245.653 1074.83 245.882 1111.38 250.151C1202.34 260.794 1284.06 288.097 1336.59 309.121C1398.78 334.012 1439.32 357.7 1447.2 364.853L1446.31 365.507L1446.32 365.518Z" fill="url(#paint6_linear_355_34781)"/>
<path d="M1447.47 386.632C1438.37 378.376 1395.28 355.006 1331.69 331.045C1278.66 311.06 1197.13 285.27 1109.91 275.882C1072.58 271.865 1038.34 272.056 1008.13 276.439C929.726 287.819 851.631 293.786 782.307 293.692C690.634 293.567 611.979 283.201 548.52 262.876C519.574 253.607 492.569 241.348 468.283 226.438C395.503 181.776 282.982 126.096 160.269 114.51C105.755 109.362 43.4669 113.817 -2.33952 126.125L-2.75698 125.175C43.2004 112.82 105.711 108.335 160.357 113.514C283.348 125.135 396.069 180.902 468.977 225.646C493.183 240.498 520.07 252.707 548.92 261.947C612.237 282.22 690.747 292.563 782.261 292.694C851.512 292.791 929.532 286.828 1007.87 275.452C1038.21 271.051 1072.58 270.861 1110.02 274.888C1197.4 284.29 1279.05 310.121 1332.16 330.133C1396.62 354.421 1438.92 377.411 1448.36 385.977L1447.47 386.632Z" fill="url(#paint7_linear_355_34781)"/>
<path d="M1448.64 407.737C1425.15 386.442 1259.56 315.343 1108.56 300.6C1070.24 296.866 1035.96 297.465 1006.72 302.406C937.429 314.121 857.337 319.298 781.175 316.983C689.944 314.207 608.7 300.61 546.243 277.683C516.371 266.716 489.944 253.042 467.675 237.036C375.851 171.031 269.446 129.877 167.452 120.848C165.704 120.693 163.956 120.538 162.205 120.414C107.174 116.134 49.4493 121.143 -0.355674 134.533L-0.773138 133.583C49.1819 120.156 107.092 115.123 162.281 119.416C266.119 127.515 374.856 169.005 468.463 236.292C490.627 252.229 516.95 265.843 546.703 276.769C678.633 325.202 872.663 324.048 1006.44 301.428C1035.8 296.457 1070.19 295.837 1108.66 299.605C1259.95 314.384 1425.96 385.711 1449.53 407.083L1448.64 407.737Z" fill="url(#paint8_linear_355_34781)"/>
<path d="M1449.79 428.84C1433.39 413.966 1357.42 381.571 1270.49 357.049C1207.61 339.315 1089.54 312.007 1005.32 328.373C927.401 343.511 820.022 346.253 725.054 335.526C671.078 329.423 622.258 319.388 579.964 305.695C532.794 290.426 494.811 270.89 467.08 247.624C406.56 196.87 333.981 159.885 257.173 140.677C216.357 130.468 174.53 125.33 132.854 125.395C88.8157 125.471 44.6655 131.371 1.6283 142.941L1.21083 141.99C44.373 130.391 88.6481 124.463 132.808 124.397C174.606 124.332 216.555 129.482 257.478 139.72C334.489 158.976 407.256 196.058 467.924 246.936C495.53 270.091 533.362 289.543 580.365 304.757C622.576 318.423 671.299 328.438 725.179 334.523C819.99 345.236 927.222 342.501 1005 327.391C1089.53 310.971 1207.84 338.332 1270.86 356.098C1357.98 380.666 1434.18 413.203 1450.7 428.177L1449.81 428.832L1449.79 428.84Z" fill="url(#paint9_linear_355_34781)"/>
</g>
<defs>
<linearGradient id="paint0_linear_355_34781" x1="-15.5403" y1="54.8146" x2="435.43" y2="308.567" gradientUnits="userSpaceOnUse">
<stop stop-color="#35A774"/>
<stop offset="1" stop-color="#15412D" stop-opacity="0.1"/>
</linearGradient>
<linearGradient id="paint1_linear_355_34781" x1="-14.9652" y1="78.0308" x2="429.183" y2="336.782" gradientUnits="userSpaceOnUse">
<stop stop-color="#35A774"/>
<stop offset="1" stop-color="#15412D" stop-opacity="0.1"/>
</linearGradient>
<linearGradient id="paint2_linear_355_34781" x1="-14.3085" y1="101.154" x2="422.561" y2="364.873" gradientUnits="userSpaceOnUse">
<stop stop-color="#35A774"/>
<stop offset="1" stop-color="#15412D" stop-opacity="0.1"/>
</linearGradient>
<linearGradient id="paint3_linear_355_34781" x1="-13.5653" y1="123.713" x2="417.713" y2="391.063" gradientUnits="userSpaceOnUse">
<stop stop-color="#35A774"/>
<stop offset="1" stop-color="#15412D" stop-opacity="0.1"/>
</linearGradient>
<linearGradient id="paint4_linear_355_34781" x1="-12.0505" y1="137.422" x2="444.386" y2="387.562" gradientUnits="userSpaceOnUse">
<stop stop-color="#35A774"/>
<stop offset="1" stop-color="#15412D" stop-opacity="0.1"/>
</linearGradient>
<linearGradient id="paint5_linear_355_34781" x1="-10.5182" y1="151.069" x2="464.893" y2="385.374" gradientUnits="userSpaceOnUse">
<stop stop-color="#35A774"/>
<stop offset="1" stop-color="#15412D" stop-opacity="0.1"/>
</linearGradient>
<linearGradient id="paint6_linear_355_34781" x1="-8.99489" y1="164.679" x2="480.915" y2="384.802" gradientUnits="userSpaceOnUse">
<stop stop-color="#35A774"/>
<stop offset="1" stop-color="#15412D" stop-opacity="0.1"/>
</linearGradient>
<linearGradient id="paint7_linear_355_34781" x1="-7.45465" y1="178.238" x2="493.796" y2="385.752" gradientUnits="userSpaceOnUse">
<stop stop-color="#35A774"/>
<stop offset="1" stop-color="#15412D" stop-opacity="0.1"/>
</linearGradient>
<linearGradient id="paint8_linear_355_34781" x1="-5.92104" y1="191.732" x2="504.343" y2="388.078" gradientUnits="userSpaceOnUse">
<stop stop-color="#35A774"/>
<stop offset="1" stop-color="#15412D" stop-opacity="0.1"/>
</linearGradient>
<linearGradient id="paint9_linear_355_34781" x1="-4.38108" y1="205.155" x2="513.173" y2="391.579" gradientUnits="userSpaceOnUse">
<stop stop-color="#35A774"/>
<stop offset="1" stop-color="#15412D" stop-opacity="0.1"/>
</linearGradient>
</defs>
</svg>
