<svg width="40" height="50" viewBox="0 0 40 50" fill="none" xmlns="http://www.w3.org/2000/svg">
<path d="M-21.9497 6.45186L-21.4676 2.53064L-18.9863 2.83569L-18.7453 0.875084C-18.6641 0.215126 -18.4974 -0.420835 -18.255 -1.02034L-20.5728 -1.95734C-19.9152 -3.58402 -18.8396 -5.01088 -17.4569 -6.09098L-15.9179 -4.1208C-15.4083 -4.51887 -14.8429 -4.85428 -14.2307 -5.114L-12.4123 -5.88556L-13.3888 -8.18697L-9.75186 -9.7301L-8.77538 -7.42869L-5.13847 -8.97181L-6.11495 -11.2732L-2.47805 -12.8163L-1.50157 -10.5149L2.13534 -12.0581L1.15886 -14.3595L4.79577 -15.9026L5.77225 -13.6012L7.5907 -14.3727C8.20281 -14.6325 8.83694 -14.806 9.47731 -14.8959L9.12989 -17.3716C10.8674 -17.6155 12.6409 -17.3974 14.2677 -16.74L13.3309 -14.4221C13.9305 -14.1798 14.5037 -13.8578 15.0347 -13.4576L16.6121 -12.2686L18.1169 -14.2649L21.2718 -11.8868L19.7669 -9.89046L22.9218 -7.51237L24.4266 -9.50873L27.5814 -7.13064L26.0766 -5.13428L29.2314 -2.75619L30.7363 -4.75255L33.8911 -2.37446L32.3863 -0.378098L33.9637 0.810948C34.4947 1.21119 34.962 1.67358 35.3601 2.18323L37.3304 0.644482C38.4103 2.02734 39.1083 3.67222 39.3523 5.40975L36.8766 5.75745C36.9665 6.39781 36.9743 7.05522 36.8931 7.71518L36.6521 9.67579L39.1334 9.98084L38.6513 13.9021L36.17 13.597L35.688 17.5182L38.1693 17.8233L37.6872 21.7445L35.2059 21.4394L34.7238 25.3607L37.2051 25.6657L36.7231 29.5869L34.2418 29.2819L34.0007 31.2425C33.9196 31.9024 33.7528 32.5384 33.5105 33.1379L35.8282 34.0749C35.1706 35.7016 34.0951 37.1284 32.7123 38.2085L31.1734 36.2384C30.6638 36.6364 30.0983 36.9718 29.4862 37.2316L27.6677 38.0031L28.6442 40.3045L25.0073 41.8477L24.0308 39.5463L20.3939 41.0894L21.3704 43.3908L17.7335 44.9339L16.757 42.6325L13.1201 44.1756L14.0966 46.477L10.4597 48.0202L9.4832 45.7187L7.66475 46.4903C7.05264 46.75 6.41851 46.9236 5.77814 47.0135L6.12556 49.4892C4.388 49.733 2.61453 49.515 0.987773 48.8576L1.92451 46.5397C1.32498 46.2974 0.751766 45.9754 0.220794 45.5752L-1.35662 44.3861L-2.86147 46.3825L-6.0163 44.0044L-4.51146 42.008L-7.6663 39.6299L-9.17114 41.6263L-12.326 39.2482L-10.8211 37.2518L-13.976 34.8737L-15.4808 36.8701L-18.6357 34.492L-17.1308 32.4957L-18.7082 31.3066C-19.2392 30.9064 -19.7066 30.444 -20.1046 29.9343L-22.0749 31.4731C-23.1549 30.0902 -23.8528 28.4453 -24.0968 26.7078L-21.6211 26.3601C-21.7111 25.7198 -21.7188 25.0623 -21.6377 24.4024L-21.3966 22.4418L-23.878 22.1367L-23.3959 18.2155L-20.9146 18.5206L-20.4325 14.5993L-22.9138 14.2943L-22.4318 10.3731L-19.9504 10.6781L-19.4684 6.75691L-21.9497 6.45186Z" fill="#6A9619" stroke="#A6CE39" stroke-width="5" stroke-dasharray="4 4"/>
</svg>
