<svg width="40" height="49" viewBox="0 0 40 49" fill="none" xmlns="http://www.w3.org/2000/svg">
<path d="M30.5301 3.11416L34.3141 1.97867L35.0327 4.37319L36.9247 3.80545C37.5616 3.61434 38.2109 3.51127 38.8573 3.49209L38.7831 0.99319C40.5369 0.941145 42.2758 1.35211 43.8208 2.18377L42.6358 4.38509C43.2052 4.69159 43.7397 5.07444 44.2236 5.53043L45.6613 6.8851L47.3758 5.06558L50.2512 7.77491L48.5367 9.59444L51.4121 12.3038L53.1265 10.4843L56.0019 13.1936L54.2875 15.0131L57.1629 17.7224L58.8773 15.9029L61.7527 18.6123L60.0382 20.4318L61.4759 21.7864C61.9599 22.2424 62.3738 22.7532 62.7136 23.3034L64.8406 21.9897C65.7626 23.4826 66.2761 25.194 66.3284 26.9478L63.8295 27.0222C63.8488 27.6686 63.7844 28.3229 63.6315 28.97L63.1772 30.8924L65.6102 31.4674L64.7015 35.3122L62.2685 34.7372L61.3599 38.5821L63.7928 39.1571L62.8842 43.0019L60.4512 42.4269L59.5425 46.2717L61.9755 46.8467L61.0669 50.6915L58.6339 50.1165L58.1795 52.0389C58.0266 52.686 57.7912 53.2999 57.4846 53.8693L59.6858 55.0545C58.854 56.5994 57.6286 57.8998 56.1359 58.822L54.822 56.6951C54.2719 57.0349 53.6731 57.3064 53.0362 57.4975L51.1442 58.0652L51.8627 60.4598L48.0787 61.5953L47.3601 59.2007L43.5761 60.3362L44.2946 62.7307L40.5106 63.8662L39.792 61.4717L36.008 62.6072L36.7265 65.0017L32.9425 66.1372L32.2239 63.7427L30.3319 64.3104C29.6951 64.5015 29.0457 64.6046 28.3994 64.6238L28.4735 67.1227C26.7197 67.1747 24.9808 66.7638 23.4358 65.9321L24.6208 63.7308C24.0514 63.4243 23.5169 63.0414 23.033 62.5854L21.5953 61.2308L19.8808 63.0503L17.0055 60.341L18.7199 58.5214L15.8445 55.8121L14.1301 57.6316L11.2547 54.9223L12.9691 53.1028L10.0938 50.3934L8.37931 52.213L5.50393 49.5036L7.21838 47.6841L5.78069 46.3294C5.29675 45.8734 4.88282 45.3626 4.54303 44.8125L2.416 46.1261C1.49402 44.6333 0.980471 42.9219 0.928227 41.1681L3.42712 41.0936C3.40786 40.4473 3.47217 39.793 3.6251 39.1459L4.07943 37.2235L1.64646 36.6485L2.55512 32.8036L4.9881 33.3786L5.89676 29.5338L3.46378 28.9588L4.37244 25.114L6.80542 25.689L7.71408 21.8442L5.2811 21.2692L6.18977 17.4244L8.62274 17.9993L9.07707 16.0769C9.23001 15.4298 9.46541 14.816 9.77198 14.2466L7.57079 13.0614C8.40262 11.5165 9.62799 10.2161 11.1207 9.29391L12.4346 11.4208C12.9847 11.0809 13.5835 10.8095 14.2204 10.6184L16.1124 10.0506L15.3939 7.65611L19.178 6.52062L19.8965 8.91514L23.6805 7.77965L22.962 5.38513L26.7461 4.24965L27.4646 6.64416L31.2486 5.50868L30.5301 3.11416Z" fill="#6A9619" stroke="#A6CE39" stroke-width="5" stroke-dasharray="4 4"/>
</svg>
